SourceCode_ExtraLight-Italic.ufo
<glyph name="dollar" format="1">
	<unicode hex="0024"/>
	<advance width="600"/>
	<outline>
		<contour>
			<point x="276" y="34" type="curve" smooth="yes"/>
			<point x="372" y="34"/>
			<point x="468" y="75"/>
			<point x="468" y="186" type="curve" smooth="yes"/>
			<point x="468" y="270"/>
			<point x="398" y="307"/>
			<point x="312" y="350" type="curve" smooth="yes"/>
			<point x="223" y="394"/>
			<point x="188" y="428"/>
			<point x="188" y="486" type="curve" smooth="yes"/>
			<point x="188" y="556"/>
			<point x="248" y="592"/>
			<point x="330" y="592" type="curve" smooth="yes"/>
			<point x="400" y="592"/>
			<point x="458" y="550"/>
			<point x="490" y="506" type="curve"/>
			<point x="512" y="522" type="line"/>
			<point x="482" y="566"/>
			<point x="410" y="618"/>
			<point x="332" y="618" type="curve" smooth="yes"/>
			<point x="236" y="618"/>
			<point x="160" y="578"/>
			<point x="160" y="480" type="curve" smooth="yes"/>
			<point x="160" y="407"/>
			<point x="208" y="370"/>
			<point x="297" y="324" type="curve" smooth="yes"/>
			<point x="381" y="281"/>
			<point x="440" y="252"/>
			<point x="440" y="182" type="curve" smooth="yes"/>
			<point x="440" y="102"/>
			<point x="369" y="60"/>
			<point x="278" y="60" type="curve" smooth="yes"/>
			<point x="178" y="60"/>
			<point x="120" y="112"/>
			<point x="88" y="150" type="curve"/>
			<point x="66" y="132" type="line"/>
			<point x="104" y="88"/>
			<point x="172" y="34"/>
		</contour>
		<contour>
			<point x="338" y="601" type="line"/>
			<point x="366" y="601" type="line"/>
			<point x="397" y="750" type="line"/>
			<point x="369" y="750" type="line"/>
		</contour>
		<contour>
			<point x="206" y="-110" type="line"/>
			<point x="234" y="-110" type="line"/>
			<point x="263" y="37" type="line"/>
			<point x="235" y="37" type="line"/>
		</contour>
	</outline>
</glyph>
<glyph name="three" format="1">
	<unicode hex="0033"/>
	<advance width="600"/>
	<outline>
		<contour>
			<point x="250" y="-12" type="curve" smooth="yes"/>
			<point x="378" y="-12"/>
			<point x="476" y="56"/>
			<point x="476" y="182" type="curve" smooth="yes"/>
			<point x="476" y="264"/>
			<point x="423" y="316"/>
			<point x="325" y="332" type="curve"/>
			<point x="325" y="335" type="line"/>
			<point x="447" y="356"/>
			<point x="506" y="425"/>
			<point x="506" y="518" type="curve" smooth="yes"/>
			<point x="506" y="606"/>
			<point x="438" y="652"/>
			<point x="346" y="652" type="curve" smooth="yes"/>
			<point x="260" y="652"/>
			<point x="188" y="612"/>
			<point x="142" y="570" type="curve"/>
			<point x="160" y="550" type="line"/>
			<point x="206" y="592"/>
			<point x="266" y="626"/>
			<point x="344" y="626" type="curve" smooth="yes"/>
			<point x="422" y="626"/>
			<point x="478" y="586"/>
			<point x="478" y="512" type="curve" smooth="yes"/>
			<point x="478" y="421"/>
			<point x="400" y="348"/>
			<point x="224" y="348" type="curve"/>
			<point x="220" y="322" type="line"/>
			<point x="382" y="318"/>
			<point x="448" y="262"/>
			<point x="448" y="176" type="curve" smooth="yes"/>
			<point x="448" y="72"/>
			<point x="358" y="14"/>
			<point x="252" y="14" type="curve" smooth="yes"/>
			<point x="150" y="14"/>
			<point x="93" y="66"/>
			<point x="62" y="108" type="curve"/>
			<point x="40" y="92" type="line"/>
			<point x="76" y="46"/>
			<point x="136" y="-12"/>
		</contour>
	</outline>
</glyph>
<glyph name="eight" format="1">
	<unicode hex="0038"/>
	<advance width="600"/>
	<outline>
		<contour>
			<point x="272" y="-12" type="curve" smooth="yes"/>
			<point x="394" y="-12"/>
			<point x="488" y="52"/>
			<point x="488" y="166" type="curve" smooth="yes"/>
			<point x="488" y="242"/>
			<point x="422" y="286"/>
			<point x="390" y="308" type="curve"/>
			<point x="390" y="312" type="line"/>
			<point x="474" y="356"/>
			<point x="526" y="416"/>
			<point x="526" y="506" type="curve" smooth="yes"/>
			<point x="526" y="602"/>
			<point x="452" y="652"/>
			<point x="364" y="652" type="curve" smooth="yes"/>
			<point x="264" y="652"/>
			<point x="178" y="596"/>
			<point x="178" y="492" type="curve" smooth="yes"/>
			<point x="178" y="438"/>
			<point x="202" y="402"/>
			<point x="246" y="360" type="curve"/>
			<point x="246" y="356" type="line"/>
			<point x="156" y="318"/>
			<point x="78" y="258"/>
			<point x="78" y="154" type="curve" smooth="yes"/>
			<point x="78" y="44"/>
			<point x="170" y="-12"/>
		</contour>
		<contour>
			<point x="366" y="324" type="curve"/>
			<point x="284" y="362"/>
			<point x="206" y="412"/>
			<point x="206" y="494" type="curve" smooth="yes"/>
			<point x="206" y="580"/>
			<point x="280" y="626"/>
			<point x="362" y="626" type="curve" smooth="yes"/>
			<point x="434" y="626"/>
			<point x="498" y="584"/>
			<point x="498" y="504" type="curve" smooth="yes"/>
			<point x="498" y="424"/>
			<point x="440" y="360"/>
		</contour>
		<contour>
			<point x="272" y="14" type="curve" smooth="yes"/>
			<point x="186" y="14"/>
			<point x="106" y="62"/>
			<point x="106" y="156" type="curve" smooth="yes"/>
			<point x="106" y="246"/>
			<point x="170" y="298"/>
			<point x="268" y="344" type="curve"/>
			<point x="354" y="298"/>
			<point x="460" y="252"/>
			<point x="460" y="160" type="curve" smooth="yes"/>
			<point x="460" y="64"/>
			<point x="372" y="14"/>
		</contour>
	</outline>
</glyph>
<glyph name="greater" format="1">
	<unicode hex="003E"/>
	<advance width="600"/>
	<outline>
		<contour>
			<point x="114" y="62" type="line"/>
			<point x="476" y="317" type="line"/>
			<point x="476" y="347" type="line"/>
			<point x="114" y="602" type="line"/>
			<point x="114" y="567" type="line"/>
			<point x="446" y="334" type="line"/>
			<point x="446" y="330" type="line"/>
			<point x="114" y="97" type="line"/>
		</contour>
	</outline>
</glyph>
<glyph name="at" format="2">
	<unicode hex="0040"/>
	<advance width="600"/>
	<outline>
		<contour>
			<point x="268" y="-142" type="curve" smooth="yes"/>
			<point x="332" y="-142"/>
			<point x="388" y="-116"/>
			<point x="430" y="-84" type="curve"/>
			<point x="416" y="-62" type="line"/>
			<point x="374" y="-94"/>
			<point x="325" y="-116"/>
			<point x="270" y="-116" type="curve" smooth="yes"/>
			<point x="138" y="-116"/>
			<point x="64" y="-14"/>
			<point x="64" y="154" type="curve" smooth="yes"/>
			<point x="64" y="418"/>
			<point x="228" y="602"/>
			<point x="394" y="602" type="curve" smooth="yes"/>
			<point x="498" y="602"/>
			<point x="538" y="552"/>
			<point x="538" y="474" type="curve" smooth="yes"/>
			<point x="538" y="450"/>
			<point x="534" y="424"/>
			<point x="524" y="380" type="curve"/>
			<point x="313" y="357"/>
			<point x="212" y="299"/>
			<point x="212" y="188" type="curve" smooth="yes"/>
			<point x="212" y="120"/>
			<point x="264" y="88"/>
			<point x="326" y="88" type="curve" smooth="yes"/>
			<point x="384" y="88"/>
			<point x="438" y="124"/>
			<point x="478" y="166" type="curve"/>
			<point x="482" y="166" type="line"/>
			<point x="474" y="100" type="line"/>
			<point x="497" y="100" type="line"/>
			<point x="556" y="400" type="line" smooth="yes"/>
			<point x="562" y="428"/>
			<point x="564" y="452"/>
			<point x="564" y="480" type="curve" smooth="yes"/>
			<point x="564" y="574"/>
			<point x="512" y="628"/>
			<point x="396" y="628" type="curve" smooth="yes"/>
			<point x="206" y="628"/>
			<point x="36" y="430"/>
			<point x="36" y="148" type="curve" smooth="yes"/>
			<point x="36" y="-34"/>
			<point x="116" y="-142"/>
		</contour>
		<contour>
			<point x="328" y="114" type="curve" smooth="yes"/>
			<point x="280" y="114"/>
			<point x="240" y="138"/>
			<point x="240" y="192" type="curve" smooth="yes"/>
			<point x="240" y="278"/>
			<point x="327" y="330"/>
			<point x="520" y="356" type="curve"/>
			<point x="490" y="206" type="line"/>
			<point x="428" y="144"/>
			<point x="378" y="114"/>
		</contour>
	</outline>
</glyph>
<glyph name="E" format="1">
	<unicode hex="0045"/>
	<advance width="600"/>
	<outline>
		<contour>
			<point x="78" y="0" type="line"/>
			<point x="472" y="0" type="line"/>
			<point x="478" y="26" type="line"/>
			<point x="112" y="26" type="line"/>
			<point x="176" y="338" type="line"/>
			<point x="472" y="338" type="line"/>
			<point x="478" y="364" type="line"/>
			<point x="180" y="364" type="line"/>
			<point x="234" y="634" type="line"/>
			<point x="590" y="634" type="line"/>
			<point x="596" y="660" type="line"/>
			<point x="210" y="660" type="line"/>
		</contour>
		<contour>
			<point name="aboveUC" x="418" y="680" type="move"/>
		</contour>
		<contour>
			<point name="baseLC" x="300" y="0" type="move"/>
		</contour>
		<contour>
			<point name="belowLC" x="290" y="-20" type="move"/>
		</contour>
		<contour>
			<point name="ogonekCXT-ATH" x="294" y="0" type="move"/>
		</contour>
		<contour>
			<point name="ogonekUC" x="410" y="0" type="move"/>
		</contour>
	</outline>
</glyph>
<glyph name="K" format="1">
	<unicode hex="004B"/>
	<advance width="600"/>
	<outline>
		<contour>
			<point x="600" y="660" type="line"/>
			<point x="562" y="660" type="line"/>
			<point x="154" y="282" type="line"/>
			<point x="150" y="282" type="line"/>
			<point x="226" y="660" type="line"/>
			<point x="196" y="660" type="line"/>
			<point x="64" y="0" type="line"/>
			<point x="94" y="0" type="line"/>
			<point x="142" y="236" type="line"/>
		</contour>
		<contour>
			<point x="290" y="384" type="line"/>
			<point x="476" y="0" type="line"/>
			<point x="508" y="0" type="line"/>
			<point x="312" y="402" type="line"/>
		</contour>
		<contour>
			<point name="aboveUC" x="390" y="680" type="move"/>
		</contour>
		<contour>
			<point name="belowLC" x="300" y="-20" type="move"/>
		</contour>
	</outline>
</glyph>
<glyph name="M" format="1">
	<unicode hex="004D"/>
	<advance width="600"/>
	<outline>
		<contour>
			<point x="30" y="0" type="line"/>
			<point x="60" y="0" type="line"/>
			<point x="160" y="502" type="line" smooth="yes"/>
			<point x="168" y="542"/>
			<point x="175" y="585"/>
			<point x="182" y="626" type="curve"/>
			<point x="186" y="626" type="line"/>
			<point x="191" y="590"/>
			<point x="199" y="550"/>
			<point x="204" y="517" type="curve" smooth="yes"/>
			<point x="259" y="181" type="line"/>
			<point x="289" y="181" type="line"/>
			<point x="484" y="516" type="line" smooth="yes"/>
			<point x="508" y="558"/>
			<point x="526" y="591"/>
			<point x="542" y="626" type="curve"/>
			<point x="546" y="626" type="line"/>
			<point x="535" y="585"/>
			<point x="525" y="542"/>
			<point x="517" y="502" type="curve" smooth="yes"/>
			<point x="416" y="0" type="line"/>
			<point x="446" y="0" type="line"/>
			<point x="578" y="660" type="line"/>
			<point x="535" y="660" type="line"/>
			<point x="333" y="314" type="line"/>
			<point x="283" y="219" type="line"/>
			<point x="279" y="219" type="line"/>
			<point x="266" y="313" type="line"/>
			<point x="206" y="660" type="line"/>
			<point x="162" y="660" type="line"/>
		</contour>
		<contour>
			<point name="aboveUC" x="374" y="680" type="move"/>
		</contour>
		<contour>
			<point name="baseLC" x="430" y="0" type="move"/>
		</contour>
		<contour>
			<point name="belowLC" x="234" y="-20" type="move"/>
		</contour>
	</outline>
</glyph>
<glyph name="T" format="1">
	<unicode hex="0054"/>
	<advance width="600"/>
	<outline>
		<contour>
			<point x="222" y="0" type="line"/>
			<point x="252" y="0" type="line"/>
			<point x="378" y="632" type="line"/>
			<point x="612" y="632" type="line"/>
			<point x="618" y="660" type="line"/>
			<point x="120" y="660" type="line"/>
			<point x="114" y="632" type="line"/>
			<point x="348" y="632" type="line"/>
		</contour>
		<contour>
			<point name="aboveUC" x="374" y="680" type="move"/>
		</contour>
		<contour>
			<point name="baseLC" x="238" y="0" type="move"/>
		</contour>
		<contour>
			<point name="belowLC" x="234" y="-20" type="move"/>
		</contour>
	</outline>
</glyph>
<glyph name="V" format="2">
	<unicode hex="0056"/>
	<advance width="600"/>
	<outline>
		<contour>
			<point x="222" y="0" type="line"/>
			<point x="256" y="0" type="line"/>
			<point x="617" y="660" type="line"/>
			<point x="586" y="660" type="line"/>
			<point x="368" y="260" type="line" smooth="yes"/>
			<point x="330" y="190"/>
			<point x="286" y="110"/>
			<point x="248" y="38" type="curve"/>
			<point x="244" y="38" type="line"/>
			<point x="236" y="112"/>
			<point x="228" y="188"/>
			<point x="220" y="261" type="curve" smooth="yes"/>
			<point x="178" y="660" type="line"/>
			<point x="150" y="660" type="line"/>
		</contour>
	</outline>
	<anchor name="aboveUC" x="374" y="680"/>
	<anchor name="belowLC" x="234" y="-20"/>
</glyph>
<glyph name="underscore" format="1">
	<unicode hex="005F"/>
	<advance width="600"/>
	<outline>
		<contour>
			<point x="-25" y="-119" type="line"/>
			<point x="455" y="-119" type="line"/>
			<point x="462" y="-83" type="line"/>
			<point x="-18" y="-83" type="line"/>
		</contour>
	</outline>
</glyph>
<glyph name="k" format="1">
	<unicode hex="006B"/>
	<advance width="600"/>
	<outline>
		<contour>
			<point x="72" y="0" type="line"/>
			<point x="100" y="0" type="line"/>
			<point x="128" y="136" type="line"/>
			<point x="322" y="284" type="line"/>
			<point x="566" y="478" type="line"/>
			<point x="526" y="478" type="line"/>
			<point x="140" y="176" type="line"/>
			<point x="136" y="176" type="line"/>
			<point x="244" y="722" type="line"/>
			<point x="216" y="722" type="line"/>
		</contour>
		<contour>
			<point x="307" y="280" type="line"/>
			<point x="464" y="0" type="line"/>
			<point x="496" y="0" type="line"/>
			<point x="330" y="296" type="line"/>
		</contour>
		<contour>
			<point name="aboveUC" x="228" y="740" type="move"/>
		</contour>
		<contour>
			<point name="belowLC" x="284" y="-20" type="move"/>
		</contour>
	</outline>
</glyph>
<glyph name="r" format="2">
	<unicode hex="0072"/>
	<advance width="600"/>
	<outline>
		<contour>
			<point x="116" y="0" type="line"/>
			<point x="144" y="0" type="line"/>
			<point x="200" y="280" type="line"/>
			<point x="274" y="386"/>
			<point x="356" y="462"/>
			<point x="439" y="462" type="curve" smooth="yes"/>
			<point x="474" y="462"/>
			<point x="498" y="456"/>
			<point x="524" y="438" type="curve"/>
			<point x="540" y="462" type="line"/>
			<point x="514" y="480"/>
			<point x="484" y="490"/>
			<point x="442" y="490" type="curve" smooth="yes"/>
			<point x="350" y="490"/>
			<point x="270" y="412"/>
			<point x="214" y="334" type="curve"/>
			<point x="210" y="334" type="line"/>
			<point x="236" y="478" type="line"/>
			<point x="212" y="478" type="line"/>
		</contour>
	</outline>
	<anchor name="aboveLC" x="374" y="500"/>
	<anchor name="baseLC" x="130" y="0"/>
	<anchor name="belowLC" x="130" y="-20"/>
</glyph>
<glyph name="w" format="2">
	<unicode hex="0077"/>
	<advance width="600"/>
	<outline>
		<contour>
			<point x="80" y="0" type="line"/>
			<point x="120" y="0" type="line"/>
			<point x="264" y="314" type="line" smooth="yes"/>
			<point x="283" y="356"/>
			<point x="304" y="404"/>
			<point x="325" y="450" type="curve"/>
			<point x="327" y="450" type="line"/>
			<point x="331" y="404"/>
			<point x="332" y="362"/>
			<point x="335" y="316" type="curve" smooth="yes"/>
			<point x="355" y="0" type="line"/>
			<point x="396" y="0" type="line"/>
			<point x="619" y="478" type="line"/>
			<point x="587" y="478" type="line"/>
			<point x="439" y="153" type="line" smooth="yes"/>
			<point x="419" y="109"/>
			<point x="401" y="69"/>
			<point x="382" y="27" type="curve"/>
			<point x="378" y="27" type="line"/>
			<point x="376" y="69"/>
			<point x="374" y="109"/>
			<point x="371" y="153" type="curve" smooth="yes"/>
			<point x="351" y="478" type="line"/>
			<point x="311" y="478" type="line"/>
			<point x="163" y="153" type="line" smooth="yes"/>
			<point x="143" y="109"/>
			<point x="125" y="68"/>
			<point x="106" y="27" type="curve"/>
			<point x="102" y="27" type="line"/>
			<point x="101" y="69"/>
			<point x="99" y="110"/>
			<point x="96" y="154" type="curve" smooth="yes"/>
			<point x="76" y="478" type="line"/>
			<point x="46" y="478" type="line"/>
		</contour>
	</outline>
	<anchor name="aboveLC" x="330" y="500"/>
	<anchor name="belowLC" x="240" y="-20"/>
</glyph>
<glyph name="sterling" format="1">
	<unicode hex="00A3"/>
	<advance width="600"/>
	<outline>
		<contour>
			<point x="28" y="0" type="line"/>
			<point x="455" y="0" type="line"/>
			<point x="462" y="25" type="line"/>
			<point x="100" y="25" type="line"/>
			<point x="100" y="30" type="line"/>
			<point x="187" y="79"/>
			<point x="233" y="151"/>
			<point x="232" y="254" type="curve" smooth="yes"/>
			<point x="231" y="319"/>
			<point x="217" y="396"/>
			<point x="217" y="455" type="curve" smooth="yes"/>
			<point x="217" y="568"/>
			<point x="284" y="628"/>
			<point x="385" y="628" type="curve" smooth="yes"/>
			<point x="451" y="628"/>
			<point x="491" y="595"/>
			<point x="519" y="548" type="curve"/>
			<point x="541" y="563" type="line"/>
			<point x="511" y="611"/>
			<point x="466" y="652"/>
			<point x="386" y="652" type="curve" smooth="yes"/>
			<point x="270" y="652"/>
			<point x="190" y="584"/>
			<point x="190" y="451" type="curve" smooth="yes"/>
			<point x="190" y="391"/>
			<point x="205" y="310"/>
			<point x="205" y="247" type="curve" smooth="yes"/>
			<point x="205" y="157"/>
			<point x="161" y="74"/>
			<point x="31" y="16" type="curve"/>
		</contour>
		<contour>
			<point x="82" y="300" type="line"/>
			<point x="429" y="300" type="line"/>
			<point x="434" y="323" type="line"/>
			<point x="204" y="323" type="line"/>
			<point x="87" y="320" type="line"/>
		</contour>
	</outline>
</glyph>
<glyph name="currency" format="2">
	<unicode hex="00A4"/>
	<advance width="600"/>
	<outline>
		<contour>
			<point x="57" y="97" type="line"/>
			<point x="157" y="183" type="line"/>
			<point x="184" y="152"/>
			<point x="224" y="138"/>
			<point x="264" y="138" type="curve" smooth="yes"/>
			<point x="314" y="138"/>
			<point x="359" y="155"/>
			<point x="396" y="183" type="curve"/>
			<point x="465" y="91" type="line"/>
			<point x="488" y="112" type="line"/>
			<point x="419" y="204" type="line"/>
			<point x="458" y="244"/>
			<point x="482" y="301"/>
			<point x="482" y="364" type="curve" smooth="yes"/>
			<point x="482" y="399"/>
			<point x="475" y="428"/>
			<point x="463" y="451" type="curve"/>
			<point x="568" y="540" type="line"/>
			<point x="550" y="563" type="line"/>
			<point x="446" y="475" type="line"/>
			<point x="419" y="506"/>
			<point x="380" y="520"/>
			<point x="341" y="520" type="curve" smooth="yes"/>
			<point x="293" y="520"/>
			<point x="248" y="503"/>
			<point x="211" y="475" type="curve"/>
			<point x="145" y="561" type="line"/>
			<point x="122" y="540" type="line"/>
			<point x="188" y="454" type="line"/>
			<point x="148" y="414"/>
			<point x="123" y="357"/>
			<point x="123" y="292" type="curve" smooth="yes"/>
			<point x="123" y="258"/>
			<point x="130" y="230"/>
			<point x="141" y="207" type="curve"/>
			<point x="38" y="120" type="line"/>
		</contour>
		<contour>
			<point x="269" y="166" type="curve" smooth="yes"/>
			<point x="192" y="166"/>
			<point x="153" y="218"/>
			<point x="153" y="296" type="curve" smooth="yes"/>
			<point x="153" y="408"/>
			<point x="245" y="493"/>
			<point x="337" y="493" type="curve" smooth="yes"/>
			<point x="408" y="493"/>
			<point x="452" y="442"/>
			<point x="452" y="360" type="curve" smooth="yes"/>
			<point x="452" y="247"/>
			<point x="362" y="166"/>
		</contour>
	</outline>
</glyph>
<glyph name="brokenbar" format="1">
	<unicode hex="00A6"/>
	<advance width="600"/>
	<outline>
		<contour>
			<point x="286" y="-250" type="line"/>
			<point x="314" y="-250" type="line"/>
			<point x="314" y="190" type="line"/>
			<point x="286" y="190" type="line"/>
		</contour>
		<contour>
			<point x="286" y="310" type="line"/>
			<point x="314" y="310" type="line"/>
			<point x="314" y="750" type="line"/>
			<point x="286" y="750" type="line"/>
		</contour>
	</outline>
</glyph>
<glyph name="Eth" format="1">
	<unicode hex="00D0"/>
	<advance width="600"/>
	<outline>
		<contour>
			<point x="298" y="338" type="line"/>
			<point x="304" y="364" type="line"/>
			<point x="104" y="364" type="line"/>
			<point x="24" y="362" type="line"/>
			<point x="18" y="338" type="line"/>
		</contour>
		<component base="D"/>
		<contour>
			<point name="aboveUC" x="360" y="680" type="move"/>
		</contour>
		<contour>
			<point name="belowLC" x="220" y="-20" type="move"/>
		</contour>
	</outline>
</glyph>
<glyph name="Hbar" format="1">
	<unicode hex="0126"/>
	<advance width="600"/>
	<outline>
		<contour>
			<point x="52" y="498" type="line"/>
			<point x="620" y="498" type="line"/>
			<point x="626" y="522" type="line"/>
			<point x="136" y="522" type="line"/>
			<point x="56" y="518" type="line"/>
		</contour>
		<component base="H"/>
	</outline>
</glyph>
<glyph name="napostrophe" format="1">
	<unicode hex="0149"/>
	<advance width="600"/>
	<outline>
		<contour>
			<point x="122" y="0" type="line"/>
			<point x="150" y="0" type="line"/>
			<point x="216" y="324" type="line"/>
			<point x="298" y="408"/>
			<point x="372" y="464"/>
			<point x="452" y="464" type="curve" smooth="yes"/>
			<point x="510" y="464"/>
			<point x="540" y="430"/>
			<point x="540" y="370" type="curve" smooth="yes"/>
			<point x="540" y="342"/>
			<point x="536" y="318"/>
			<point x="530" y="288" type="curve" smooth="yes"/>
			<point x="472" y="0" type="line"/>
			<point x="500" y="0" type="line"/>
			<point x="558" y="290" type="line" smooth="yes"/>
			<point x="564" y="318"/>
			<point x="568" y="342"/>
			<point x="568" y="374" type="curve" smooth="yes"/>
			<point x="568" y="440"/>
			<point x="536" y="490"/>
			<point x="456" y="490" type="curve" smooth="yes"/>
			<point x="360" y="490"/>
			<point x="294" y="432"/>
			<point x="228" y="368" type="curve"/>
			<point x="224" y="368" type="line"/>
			<point x="242" y="478" type="line"/>
			<point x="218" y="478" type="line"/>
		</contour>
		<component base="quoteright" xOffset="-226"/>
	</outline>
</glyph>
<glyph name="Tbar" format="1">
	<unicode hex="0166"/>
	<advance width="600"/>
	<outline>
		<contour>
			<point x="158" y="362" type="line"/>
			<point x="457" y="362" type="line"/>
			<point x="462" y="386" type="line"/>
			<point x="240" y="386" type="line"/>
			<point x="162" y="382" type="line"/>
		</contour>
		<component base="T"/>
		<contour>
			<point name="aboveUC" x="374" y="680" type="move"/>
		</contour>
		<contour>
			<point name="belowLC" x="234" y="-20" type="move"/>
		</contour>
	</outline>
</glyph>
<glyph name="tbar" format="1">
	<unicode hex="0167"/>
	<advance width="600"/>
	<outline>
		<contour>
			<point x="50" y="242" type="line"/>
			<point x="468" y="242" type="line"/>
			<point x="472" y="268" type="line"/>
			<point x="204" y="268" type="line"/>
			<point x="54" y="264" type="line"/>
		</contour>
		<component base="t"/>
		<contour>
			<point name="aboveLC" x="280" y="630" type="move"/>
		</contour>
		<contour>
			<point name="belowLC" x="310" y="-20" type="move"/>
		</contour>
	</outline>
</glyph>
<glyph name="bstroke" format="1">
	<unicode hex="0180"/>
	<advance width="600"/>
	<outline>
		<contour>
			<point x="256" y="-12" type="curve" smooth="yes"/>
			<point x="412" y="-12"/>
			<point x="524" y="117"/>
			<point x="524" y="278" type="curve" smooth="yes"/>
			<point x="524" y="402"/>
			<point x="456" y="470"/>
			<point x="354" y="470" type="curve" smooth="yes"/>
			<point x="280" y="470"/>
			<point x="210" y="426"/>
			<point x="158" y="378" type="curve"/>
			<point x="154" y="378" type="line"/>
			<point x="176" y="486" type="line"/>
			<point x="224" y="722" type="line"/>
			<point x="196" y="722" type="line"/>
			<point x="52" y="0" type="line"/>
			<point x="76" y="0" type="line"/>
			<point x="92" y="68" type="line"/>
			<point x="96" y="68" type="line"/>
			<point x="130" y="22"/>
			<point x="186" y="-12"/>
		</contour>
		<contour>
			<point x="258" y="14" type="curve" smooth="yes"/>
			<point x="200" y="14"/>
			<point x="146" y="36"/>
			<point x="100" y="102" type="curve"/>
			<point x="148" y="340" type="line"/>
			<point x="210" y="400"/>
			<point x="290" y="444"/>
			<point x="352" y="444" type="curve" smooth="yes"/>
			<point x="440" y="444"/>
			<point x="496" y="386"/>
			<point x="496" y="272" type="curve" smooth="yes"/>
			<point x="496" y="137"/>
			<point x="394" y="14"/>
		</contour>
		<contour>
			<point x="91" y="586" type="line"/>
			<point x="432" y="586" type="line"/>
			<point x="440" y="612" type="line"/>
			<point x="174" y="612" type="line"/>
			<point x="95" y="608" type="line"/>
		</contour>
	</outline>
</glyph>
<glyph name="Ghook" format="2">
	<unicode hex="0193"/>
	<advance width="600"/>
	<outline>
		<contour>
			<point x="568" y="580" type="line"/>
			<point x="547" y="622"/>
			<point x="540" y="652"/>
			<point x="540" y="694" type="curve" smooth="yes"/>
			<point x="540" y="730"/>
			<point x="560" y="764"/>
			<point x="598" y="764" type="curve" smooth="yes"/>
			<point x="612" y="764"/>
			<point x="622" y="760"/>
			<point x="634" y="752" type="curve"/>
			<point x="646" y="774" type="line"/>
			<point x="632" y="784"/>
			<point x="620" y="790"/>
			<point x="600" y="790" type="curve" smooth="yes"/>
			<point x="546" y="790"/>
			<point x="514" y="752"/>
			<point x="514" y="688" type="curve" smooth="yes"/>
			<point x="514" y="668"/>
			<point x="518" y="644"/>
			<point x="530" y="606" type="curve"/>
		</contour>
		<component base="G"/>
	</outline>
</glyph>
<glyph name="aringacute" format="2">
	<unicode hex="01FB"/>
	<advance width="600"/>
	<outline>
		<contour>
			<point x="366" y="704" type="line"/>
			<point x="500" y="786" type="line"/>
			<point x="484" y="812" type="line"/>
			<point x="354" y="722" type="line"/>
		</contour>
		<component base="aring"/>
	</outline>
	<anchor name="ogonekLC" x="410" y="0"/>
</glyph>
<glyph name="eopen" format="2">
	<unicode hex="025B"/>
	<advance width="600"/>
	<outline>
		<contour>
			<point x="252" y="-12" type="curve" smooth="yes"/>
			<point x="340" y="-12"/>
			<point x="388" y="-2"/>
			<point x="460" y="47" type="curve"/>
			<point x="448" y="71" type="line"/>
			<point x="378" y="23"/>
			<point x="335" y="14"/>
			<point x="254" y="14" type="curve" smooth="yes"/>
			<point x="164" y="14"/>
			<point x="86" y="64"/>
			<point x="86" y="126" type="curve" smooth="yes"/>
			<point x="86" y="204"/>
			<point x="156" y="242"/>
			<point x="294" y="242" type="curve"/>
			<point x="366" y="242" type="line"/>
			<point x="372" y="268" type="line"/>
			<point x="314" y="268" type="line"/>
			<point x="206" y="268"/>
			<point x="158" y="304"/>
			<point x="158" y="364" type="curve" smooth="yes"/>
			<point x="158" y="418"/>
			<point x="213" y="464"/>
			<point x="316" y="464" type="curve" smooth="yes"/>
			<point x="396" y="464"/>
			<point x="448" y="442"/>
			<point x="496" y="388" type="curve"/>
			<point x="514" y="406" type="line"/>
			<point x="478" y="452"/>
			<point x="405" y="490"/>
			<point x="318" y="490" type="curve" smooth="yes"/>
			<point x="206" y="490"/>
			<point x="130" y="442"/>
			<point x="130" y="358" type="curve" smooth="yes"/>
			<point x="130" y="311"/>
			<point x="153" y="283"/>
			<point x="204" y="260" type="curve"/>
			<point x="203" y="256" type="line"/>
			<point x="135" y="248"/>
			<point x="58" y="214"/>
			<point x="58" y="120" type="curve" smooth="yes"/>
			<point x="58" y="47"/>
			<point x="140" y="-12"/>
		</contour>
	</outline>
	<anchor name="aboveLC" x="330" y="500"/>
	<anchor name="baseLC" x="250" y="0"/>
	<anchor name="belowLC" x="240" y="-20"/>
</glyph>
<glyph name="ramshorn" format="2">
	<unicode hex="0264"/>
	<advance width="600"/>
	<outline>
		<contour>
			<point x="238" y="-12" type="curve" smooth="yes"/>
			<point x="356" y="-12"/>
			<point x="422" y="72"/>
			<point x="422" y="178" type="curve" smooth="yes"/>
			<point x="422" y="250"/>
			<point x="382" y="316"/>
			<point x="335" y="376" type="curve"/>
			<point x="389" y="428"/>
			<point x="439" y="464"/>
			<point x="485" y="464" type="curve" smooth="yes"/>
			<point x="504" y="464"/>
			<point x="518" y="458"/>
			<point x="530" y="448" type="curve"/>
			<point x="548" y="470" type="line"/>
			<point x="532" y="482"/>
			<point x="510" y="490"/>
			<point x="487" y="490" type="curve" smooth="yes"/>
			<point x="433" y="490"/>
			<point x="372" y="448"/>
			<point x="317" y="396" type="curve"/>
			<point x="280" y="448"/>
			<point x="234" y="490"/>
			<point x="183" y="490" type="curve" smooth="yes"/>
			<point x="159" y="490"/>
			<point x="136" y="484"/>
			<point x="116" y="472" type="curve"/>
			<point x="126" y="449" type="line"/>
			<point x="142" y="459"/>
			<point x="157" y="464"/>
			<point x="175" y="464" type="curve" smooth="yes"/>
			<point x="220" y="464"/>
			<point x="258" y="430"/>
			<point x="294" y="378" type="curve"/>
			<point x="198" y="298"/>
			<point x="112" y="210"/>
			<point x="112" y="102" type="curve" smooth="yes"/>
			<point x="112" y="35"/>
			<point x="158" y="-12"/>
		</contour>
		<contour>
			<point x="240" y="14" type="curve" smooth="yes"/>
			<point x="172" y="14"/>
			<point x="140" y="58"/>
			<point x="140" y="108" type="curve" smooth="yes"/>
			<point x="140" y="198"/>
			<point x="222" y="286"/>
			<point x="312" y="358" type="curve"/>
			<point x="356" y="304"/>
			<point x="394" y="239"/>
			<point x="394" y="172" type="curve" smooth="yes"/>
			<point x="394" y="92"/>
			<point x="338" y="14"/>
		</contour>
	</outline>
	<anchor name="aboveLC" x="340" y="500"/>
	<anchor name="belowLC" x="234" y="-20"/>
</glyph>
<glyph name="hhook" format="2">
	<unicode hex="0266"/>
	<advance width="600"/>
	<outline>
		<contour>
			<point x="52" y="0" type="line"/>
			<point x="80" y="0" type="line"/>
			<point x="146" y="324" type="line"/>
			<point x="228" y="410"/>
			<point x="308" y="464"/>
			<point x="392" y="464" type="curve" smooth="yes"/>
			<point x="456" y="464"/>
			<point x="490" y="430"/>
			<point x="490" y="370" type="curve" smooth="yes"/>
			<point x="490" y="342"/>
			<point x="486" y="318"/>
			<point x="480" y="288" type="curve" smooth="yes"/>
			<point x="422" y="0" type="line"/>
			<point x="450" y="0" type="line"/>
			<point x="508" y="290" type="line" smooth="yes"/>
			<point x="514" y="318"/>
			<point x="518" y="342"/>
			<point x="518" y="374" type="curve" smooth="yes"/>
			<point x="518" y="440"/>
			<point x="484" y="490"/>
			<point x="396" y="490" type="curve" smooth="yes"/>
			<point x="296" y="490"/>
			<point x="224" y="432"/>
			<point x="156" y="368" type="curve"/>
			<point x="152" y="368" type="line"/>
			<point x="192" y="554" type="line"/>
			<point x="214" y="664"/>
			<point x="264" y="708"/>
			<point x="336" y="708" type="curve" smooth="yes"/>
			<point x="362" y="708"/>
			<point x="388" y="700"/>
			<point x="406" y="686" type="curve"/>
			<point x="420" y="708" type="line"/>
			<point x="398" y="724"/>
			<point x="366" y="734"/>
			<point x="338" y="734" type="curve" smooth="yes"/>
			<point x="252" y="734"/>
			<point x="190" y="686"/>
			<point x="164" y="558" type="curve"/>
		</contour>
	</outline>
	<anchor name="aboveUC" x="300" y="740"/>
	<anchor name="belowLC" x="267" y="-20"/>
</glyph>
<glyph name="henghook" format="1">
	<unicode hex="0267"/>
	<advance width="600"/>
	<outline>
		<contour>
			<point x="328" y="-180" type="curve" smooth="yes"/>
			<point x="391" y="-180"/>
			<point x="422" y="-136"/>
			<point x="440" y="-48" type="curve" smooth="yes"/>
			<point x="508" y="290" type="line" smooth="yes"/>
			<point x="514" y="318"/>
			<point x="518" y="342"/>
			<point x="518" y="374" type="curve" smooth="yes"/>
			<point x="518" y="440"/>
			<point x="484" y="490"/>
			<point x="396" y="490" type="curve" smooth="yes"/>
			<point x="296" y="490"/>
			<point x="224" y="432"/>
			<point x="156" y="368" type="curve"/>
			<point x="152" y="368" type="line"/>
			<point x="192" y="554" type="line"/>
			<point x="214" y="664"/>
			<point x="264" y="708"/>
			<point x="336" y="708" type="curve" smooth="yes"/>
			<point x="362" y="708"/>
			<point x="388" y="700"/>
			<point x="406" y="686" type="curve"/>
			<point x="420" y="708" type="line"/>
			<point x="398" y="724"/>
			<point x="366" y="734"/>
			<point x="338" y="734" type="curve" smooth="yes"/>
			<point x="252" y="734"/>
			<point x="190" y="686"/>
			<point x="164" y="558" type="curve"/>
			<point x="52" y="0" type="line"/>
			<point x="80" y="0" type="line"/>
			<point x="146" y="324" type="line"/>
			<point x="228" y="410"/>
			<point x="308" y="464"/>
			<point x="392" y="464" type="curve" smooth="yes"/>
			<point x="456" y="464"/>
			<point x="490" y="430"/>
			<point x="490" y="370" type="curve" smooth="yes"/>
			<point x="490" y="342"/>
			<point x="486" y="318"/>
			<point x="480" y="288" type="curve" smooth="yes"/>
			<point x="412" y="-50" type="line" smooth="yes"/>
			<point x="398" y="-118"/>
			<point x="374" y="-154"/>
			<point x="330" y="-154" type="curve" smooth="yes"/>
			<point x="304" y="-154"/>
			<point x="294" y="-148"/>
			<point x="282" y="-140" type="curve"/>
			<point x="270" y="-164" type="line"/>
			<point x="284" y="-172"/>
			<point x="300" y="-180"/>
		</contour>
		<contour>
			<point name="aboveUC" x="300" y="740" type="move"/>
		</contour>
	</outline>
</glyph>
<glyph name="kturned" format="1">
	<unicode hex="029E"/>
	<advance width="600"/>
	<outline>
		<contour>
			<point x="340" y="-222" type="line"/>
			<point x="368" y="-222" type="line"/>
			<point x="508" y="478" type="line"/>
			<point x="480" y="478" type="line"/>
			<point x="452" y="342" type="line"/>
			<point x="258" y="194" type="line"/>
			<point x="14" y="0" type="line"/>
			<point x="54" y="0" type="line"/>
			<point x="440" y="302" type="line"/>
			<point x="444" y="302" type="line"/>
		</contour>
		<contour>
			<point x="250" y="182" type="line"/>
			<point x="273" y="198" type="line"/>
			<point x="116" y="478" type="line"/>
			<point x="84" y="478" type="line"/>
		</contour>
		<contour>
			<point name="aboveLC" x="310" y="500" type="move"/>
		</contour>
		<contour>
			<point name="belowLC" x="350" y="-230" type="move"/>
		</contour>
	</outline>
</glyph>
<glyph name="h.sups" format="1">
	<unicode hex="02B0"/>
	<advance width="600"/>
	<outline>
		<contour>
			<point x="204" y="410" type="line"/>
			<point x="234" y="410" type="line"/>
			<point x="281" y="642" type="line"/>
			<point x="333" y="684"/>
			<point x="369" y="707"/>
			<point x="416" y="707" type="curve" smooth="yes"/>
			<point x="471" y="707"/>
			<point x="488" y="675"/>
			<point x="475" y="608" type="curve" smooth="yes"/>
			<point x="436" y="410" type="line"/>
			<point x="466" y="410" type="line"/>
			<point x="506" y="612" type="line" smooth="yes"/>
			<point x="522" y="694"/>
			<point x="495" y="734"/>
			<point x="422" y="734" type="curve" smooth="yes"/>
			<point x="373" y="734"/>
			<point x="329" y="709"/>
			<point x="284" y="669" type="curve"/>
			<point x="302" y="746" type="line"/>
			<point x="329" y="884" type="line"/>
			<point x="299" y="884" type="line"/>
		</contour>
	</outline>
</glyph>
<glyph name="y.sups" format="1">
	<unicode hex="02B8"/>
	<advance width="600"/>
	<outline>
		<contour>
			<point x="178" y="266" type="curve" smooth="yes"/>
			<point x="239" y="266"/>
			<point x="278" y="306"/>
			<point x="306" y="353" type="curve" smooth="yes"/>
			<point x="529" y="726" type="line"/>
			<point x="495" y="726" type="line"/>
			<point x="378" y="528" type="line" smooth="yes"/>
			<point x="363" y="502"/>
			<point x="343" y="467"/>
			<point x="328" y="439" type="curve"/>
			<point x="323" y="439" type="line"/>
			<point x="317" y="469"/>
			<point x="310" y="502"/>
			<point x="304" y="528" type="curve" smooth="yes"/>
			<point x="256" y="726" type="line"/>
			<point x="224" y="726" type="line"/>
			<point x="304" y="405" type="line"/>
			<point x="288" y="377" type="line" smooth="yes"/>
			<point x="257" y="323"/>
			<point x="225" y="293"/>
			<point x="182" y="293" type="curve" smooth="yes"/>
			<point x="164" y="293"/>
			<point x="151" y="299"/>
			<point x="142" y="307" type="curve"/>
			<point x="128" y="283" type="line"/>
			<point x="139" y="273"/>
			<point x="157" y="266"/>
		</contour>
	</outline>
</glyph>
<glyph name="ringhalfrightmod" format="1">
	<unicode hex="02BE"/>
	<advance width="600"/>
	<outline>
		<contour>
			<point x="246" y="538" type="line"/>
			<point x="352" y="536"/>
			<point x="442" y="598"/>
			<point x="442" y="700" type="curve" smooth="yes"/>
			<point x="442" y="786"/>
			<point x="386" y="826"/>
			<point x="304" y="822" type="curve"/>
			<point x="298" y="798" type="line"/>
			<point x="367" y="798"/>
			<point x="412" y="771"/>
			<point x="412" y="698" type="curve" smooth="yes"/>
			<point x="412" y="617"/>
			<point x="343" y="564"/>
			<point x="252" y="562" type="curve"/>
		</contour>
	</outline>
</glyph>
<glyph name="glottalstopreversedsupmod" format="2">
	<unicode hex="02E4"/>
	<advance width="600"/>
	<outline>
		<contour>
			<point x="320" y="410" type="line"/>
			<point x="346" y="410" type="line"/>
			<point x="388" y="618" type="line"/>
			<point x="322" y="656"/>
			<point x="293" y="696"/>
			<point x="293" y="755" type="curve" smooth="yes"/>
			<point x="293" y="822"/>
			<point x="340" y="868"/>
			<point x="415" y="868" type="curve" smooth="yes"/>
			<point x="464" y="868"/>
			<point x="496" y="846"/>
			<point x="520" y="810" type="curve"/>
			<point x="540" y="824" type="line"/>
			<point x="514" y="864"/>
			<point x="474" y="892"/>
			<point x="416" y="892" type="curve" smooth="yes"/>
			<point x="326" y="892"/>
			<point x="267" y="836"/>
			<point x="267" y="751" type="curve" smooth="yes"/>
			<point x="267" y="686"/>
			<point x="302" y="642"/>
			<point x="358" y="604" type="curve"/>
		</contour>
	</outline>
</glyph>
<glyph name="dotaccentcmb" format="1">
	<unicode hex="0307"/>
	<advance width="600"/>
	<outline>
		<contour>
			<point x="360" y="600" type="curve" smooth="yes"/>
			<point x="382" y="600"/>
			<point x="404" y="622"/>
			<point x="404" y="648" type="curve" smooth="yes"/>
			<point x="404" y="668"/>
			<point x="392" y="682"/>
			<point x="370" y="682" type="curve" smooth="yes"/>
			<point x="348" y="682"/>
			<point x="326" y="660"/>
			<point x="326" y="634" type="curve" smooth="yes"/>
			<point x="326" y="614"/>
			<point x="338" y="600"/>
		</contour>
		<contour>
			<point name="_aboveLC" x="338" y="500" type="move"/>
		</contour>
		<contour>
			<point name="aboveLC" x="370" y="674" type="move"/>
		</contour>
	</outline>
</glyph>
<glyph name="ringcmb" format="2">
	<unicode hex="030A"/>
	<advance width="600"/>
	<outline>
		<contour>
			<point x="358" y="548" type="curve" smooth="yes"/>
			<point x="416" y="548"/>
			<point x="456" y="599"/>
			<point x="456" y="656" type="curve" smooth="yes"/>
			<point x="456" y="706"/>
			<point x="420" y="732"/>
			<point x="376" y="732" type="curve" smooth="yes"/>
			<point x="318" y="732"/>
			<point x="278" y="681"/>
			<point x="278" y="624" type="curve" smooth="yes"/>
			<point x="278" y="574"/>
			<point x="314" y="548"/>
		</contour>
		<contour>
			<point x="360" y="570" type="curve" smooth="yes"/>
			<point x="324" y="570"/>
			<point x="302" y="592"/>
			<point x="302" y="626" type="curve" smooth="yes"/>
			<point x="302" y="672"/>
			<point x="335" y="710"/>
			<point x="374" y="710" type="curve" smooth="yes"/>
			<point x="410" y="710"/>
			<point x="432" y="688"/>
			<point x="432" y="654" type="curve" smooth="yes"/>
			<point x="432" y="608"/>
			<point x="399" y="570"/>
		</contour>
	</outline>
	<anchor name="_aboveLC" x="338" y="500"/>
	<anchor name="aboveLC" x="300" y="500"/>
</glyph>
<glyph name="hungarumlautcmb" format="1">
	<unicode hex="030B"/>
	<advance width="600"/>
	<outline>
		<contour>
			<point x="302" y="574" type="line"/>
			<point x="422" y="724" type="line"/>
			<point x="400" y="742" type="line"/>
			<point x="284" y="586" type="line"/>
		</contour>
		<contour>
			<point x="430" y="574" type="line"/>
			<point x="550" y="724" type="line"/>
			<point x="528" y="742" type="line"/>
			<point x="412" y="586" type="line"/>
		</contour>
		<contour>
			<point name="_aboveLC" x="338" y="500" type="move"/>
		</contour>
	</outline>
</glyph>
<glyph name="downtackbelowcmb" format="1">
	<unicode hex="031E"/>
	<advance width="600"/>
	<outline>
		<contour>
			<point x="177" y="-242" type="line"/>
			<point x="205" y="-242" type="line"/>
			<point x="226" y="-136" type="line"/>
			<point x="298" y="-136" type="line"/>
			<point x="303" y="-108" type="line"/>
			<point x="131" y="-108" type="line"/>
			<point x="126" y="-136" type="line"/>
			<point x="198" y="-136" type="line"/>
		</contour>
		<contour>
			<point name="_belowLC" x="234" y="-20" type="move"/>
		</contour>
	</outline>
</glyph>
<glyph name="bridgeinvertedbelowcmb" format="2">
	<unicode hex="033A"/>
	<advance width="600"/>
	<outline>
		<contour>
			<point x="77" y="-234" type="line"/>
			<point x="309" y="-234" type="line"/>
			<point x="337" y="-90" type="line"/>
			<point x="311" y="-90" type="line"/>
			<point x="288" y="-206" type="line"/>
			<point x="108" y="-206" type="line"/>
			<point x="131" y="-90" type="line"/>
			<point x="105" y="-90" type="line"/>
		</contour>
	</outline>
	<anchor name="_belowLC" x="234" y="-20"/>
</glyph>
<glyph name="o.sups" format="1">
	<unicode hex="1D52"/>
	<advance width="600"/>
	<outline>
		<contour>
			<point x="311" y="402" type="curve" smooth="yes"/>
			<point x="409" y="402"/>
			<point x="498" y="481"/>
			<point x="498" y="602" type="curve" smooth="yes"/>
			<point x="498" y="685"/>
			<point x="449" y="734"/>
			<point x="377" y="734" type="curve" smooth="yes"/>
			<point x="279" y="734"/>
			<point x="190" y="654"/>
			<point x="190" y="533" type="curve" smooth="yes"/>
			<point x="190" y="451"/>
			<point x="241" y="402"/>
		</contour>
		<contour>
			<point x="316" y="430" type="curve" smooth="yes"/>
			<point x="258" y="430"/>
			<point x="222" y="470"/>
			<point x="222" y="538" type="curve" smooth="yes"/>
			<point x="222" y="633"/>
			<point x="293" y="708"/>
			<point x="373" y="708" type="curve" smooth="yes"/>
			<point x="430" y="708"/>
			<point x="466" y="665"/>
			<point x="466" y="597" type="curve" smooth="yes"/>
			<point x="466" y="501"/>
			<point x="397" y="430"/>
		</contour>
	</outline>
</glyph>
<glyph name="p.sups" format="1">
	<unicode hex="1D56"/>
	<advance width="600"/>
	<outline>
		<contour>
			<point x="171" y="266" type="line"/>
			<point x="202" y="266" type="line"/>
			<point x="225" y="383" type="line"/>
			<point x="235" y="441" type="line"/>
			<point x="264" y="416"/>
			<point x="294" y="402"/>
			<point x="331" y="402" type="curve" smooth="yes"/>
			<point x="430" y="402"/>
			<point x="519" y="484"/>
			<point x="519" y="614" type="curve" smooth="yes"/>
			<point x="519" y="687"/>
			<point x="484" y="734"/>
			<point x="410" y="734" type="curve" smooth="yes"/>
			<point x="362" y="734"/>
			<point x="324" y="711"/>
			<point x="286" y="686" type="curve"/>
			<point x="284" y="686" type="line"/>
			<point x="288" y="726" type="line"/>
			<point x="263" y="726" type="line"/>
		</contour>
		<contour>
			<point x="334" y="429" type="curve" smooth="yes"/>
			<point x="300" y="429"/>
			<point x="273" y="440"/>
			<point x="242" y="470" type="curve"/>
			<point x="279" y="655" type="line"/>
			<point x="327" y="688"/>
			<point x="360" y="707"/>
			<point x="400" y="707" type="curve" smooth="yes"/>
			<point x="462" y="707"/>
			<point x="486" y="666"/>
			<point x="486" y="610" type="curve" smooth="yes"/>
			<point x="486" y="505"/>
			<point x="417" y="429"/>
		</contour>
	</outline>
</glyph>
<glyph name="Germandbls" format="1">
	<unicode hex="1E9E"/>
	<advance width="600"/>
	<outline>
		<contour>
			<point x="333" y="-12" type="curve" smooth="yes"/>
			<point x="465" y="-12"/>
			<point x="538" y="74"/>
			<point x="538" y="173" type="curve" smooth="yes"/>
			<point x="538" y="267"/>
			<point x="476" y="326"/>
			<point x="335" y="361" type="curve"/>
			<point x="338" y="345" type="line"/>
			<point x="550" y="541" type="line"/>
			<point x="528" y="619"/>
			<point x="471" y="672"/>
			<point x="381" y="672" type="curve" smooth="yes"/>
			<point x="239" y="672"/>
			<point x="145" y="576"/>
			<point x="118" y="434" type="curve" smooth="yes"/>
			<point x="31" y="0" type="line"/>
			<point x="61" y="0" type="line"/>
			<point x="145" y="422" type="line" smooth="yes"/>
			<point x="177" y="581"/>
			<point x="274" y="646"/>
			<point x="380" y="646" type="curve" smooth="yes"/>
			<point x="452" y="646"/>
			<point x="500" y="603"/>
			<point x="523" y="537" type="curve"/>
			<point x="522" y="553" type="line"/>
			<point x="323" y="366" type="line"/>
			<point x="320" y="338" type="line"/>
			<point x="442" y="308"/>
			<point x="508" y="262"/>
			<point x="508" y="172" type="curve" smooth="yes"/>
			<point x="508" y="86"/>
			<point x="439" y="15"/>
			<point x="334" y="15" type="curve" smooth="yes"/>
			<point x="269" y="15"/>
			<point x="228" y="40"/>
			<point x="197" y="86" type="curve"/>
			<point x="174" y="68" type="line"/>
			<point x="204" y="22"/>
			<point x="259" y="-12"/>
		</contour>
	</outline>
</glyph>
<glyph name="daggerdbl" format="1">
	<unicode hex="2021"/>
	<advance width="600"/>
	<outline>
		<contour>
			<point x="209" y="-80" type="line"/>
			<point x="239" y="-80" type="line"/>
			<point x="267" y="70" type="line"/>
			<point x="389" y="68" type="line"/>
			<point x="395" y="98" type="line"/>
			<point x="271" y="96" type="line"/>
			<point x="317" y="316" type="line"/>
			<point x="359" y="536" type="line"/>
			<point x="481" y="534" type="line"/>
			<point x="487" y="564" type="line"/>
			<point x="365" y="562" type="line"/>
			<point x="395" y="712" type="line"/>
			<point x="365" y="712" type="line"/>
			<point x="337" y="562" type="line"/>
			<point x="215" y="564" type="line"/>
			<point x="209" y="534" type="line"/>
			<point x="333" y="536" type="line"/>
			<point x="287" y="316" type="line"/>
			<point x="245" y="96" type="line"/>
			<point x="123" y="98" type="line"/>
			<point x="117" y="68" type="line"/>
			<point x="239" y="70" type="line"/>
		</contour>
	</outline>
</glyph>
<glyph name="ellipsis" format="2">
	<unicode hex="2026"/>
	<advance width="600"/>
	<outline>
		<contour>
			<point x="49" y="-12" type="curve" smooth="yes"/>
			<point x="83" y="-12"/>
			<point x="113" y="14"/>
			<point x="113" y="57" type="curve" smooth="yes"/>
			<point x="113" y="88"/>
			<point x="94" y="103"/>
			<point x="73" y="103" type="curve" smooth="yes"/>
			<point x="43" y="103"/>
			<point x="8" y="78"/>
			<point x="8" y="34" type="curve" smooth="yes"/>
			<point x="8" y="6"/>
			<point x="24" y="-12"/>
		</contour>
		<contour>
			<point x="239" y="-12" type="curve" smooth="yes"/>
			<point x="272" y="-12"/>
			<point x="302" y="14"/>
			<point x="302" y="57" type="curve" smooth="yes"/>
			<point x="302" y="88"/>
			<point x="284" y="103"/>
			<point x="263" y="103" type="curve" smooth="yes"/>
			<point x="233" y="103"/>
			<point x="198" y="78"/>
			<point x="198" y="34" type="curve" smooth="yes"/>
			<point x="198" y="6"/>
			<point x="213" y="-12"/>
		</contour>
		<contour>
			<point x="428" y="-12" type="curve" smooth="yes"/>
			<point x="462" y="-12"/>
			<point x="492" y="14"/>
			<point x="492" y="57" type="curve" smooth="yes"/>
			<point x="492" y="88"/>
			<point x="473" y="103"/>
			<point x="452" y="103" type="curve" smooth="yes"/>
			<point x="422" y="103"/>
			<point x="387" y="78"/>
			<point x="387" y="34" type="curve" smooth="yes"/>
			<point x="387" y="6"/>
			<point x="403" y="-12"/>
		</contour>
	</outline>
</glyph>
<glyph name="undertie" format="2">
	<unicode hex="203F"/>
	<advance width="600"/>
	<outline>
		<contour>
			<point x="190" y="-234" type="curve" smooth="yes"/>
			<point x="359" y="-234"/>
			<point x="507" y="-186"/>
			<point x="650" y="-104" type="curve"/>
			<point x="643" y="-85" type="line"/>
			<point x="506" y="-165"/>
			<point x="350" y="-208"/>
			<point x="196" y="-208" type="curve" smooth="yes"/>
			<point x="41" y="-208"/>
			<point x="-98" y="-165"/>
			<point x="-203" y="-85" type="curve"/>
			<point x="-218" y="-104" type="line"/>
			<point x="-107" y="-186"/>
			<point x="21" y="-234"/>
		</contour>
	</outline>
</glyph>
<glyph name="n.sups" format="2">
	<unicode hex="207F"/>
	<advance width="600"/>
	<outline>
		<contour>
			<point x="204" y="410" type="line"/>
			<point x="234" y="410" type="line"/>
			<point x="281" y="642" type="line"/>
			<point x="332" y="686"/>
			<point x="370" y="707"/>
			<point x="415" y="707" type="curve" smooth="yes"/>
			<point x="472" y="707"/>
			<point x="488" y="675"/>
			<point x="475" y="608" type="curve" smooth="yes"/>
			<point x="436" y="410" type="line"/>
			<point x="466" y="410" type="line"/>
			<point x="506" y="613" type="line" smooth="yes"/>
			<point x="522" y="695"/>
			<point x="490" y="734"/>
			<point x="428" y="734" type="curve" smooth="yes"/>
			<point x="373" y="734"/>
			<point x="329" y="709"/>
			<point x="288" y="673" type="curve"/>
			<point x="285" y="673" type="line"/>
			<point x="293" y="726" type="line"/>
			<point x="267" y="726" type="line"/>
		</contour>
	</outline>
</glyph>
<glyph name="one.subs" format="2">
	<unicode hex="2081"/>
	<advance width="600"/>
	<outline>
		<contour>
			<point x="222" y="-170" type="line"/>
			<point x="248" y="-170" type="line"/>
			<point x="326" y="220" type="line"/>
			<point x="304" y="220" type="line"/>
			<point x="276" y="200"/>
			<point x="242" y="190"/>
			<point x="190" y="184" type="curve"/>
			<point x="186" y="164" type="line"/>
			<point x="288" y="164" type="line"/>
		</contour>
		<contour>
			<point x="98" y="-170" type="line"/>
			<point x="368" y="-170" type="line"/>
			<point x="372" y="-146" type="line"/>
			<point x="102" y="-146" type="line"/>
		</contour>
	</outline>
</glyph>
<glyph name="four.subs" format="1">
	<unicode hex="2084"/>
	<advance width="600"/>
	<outline>
		<contour>
			<point x="265" y="-170" type="line"/>
			<point x="291" y="-170" type="line"/>
			<point x="344" y="86" type="line"/>
			<point x="318" y="86" type="line"/>
		</contour>
		<contour>
			<point x="120" y="-50" type="line"/>
			<point x="371" y="-50" type="line"/>
			<point x="377" y="-26" type="line"/>
			<point x="158" y="-26" type="line"/>
			<point x="340" y="218" type="line"/>
			<point x="320" y="232" type="line"/>
			<point x="124" y="-32" type="line"/>
		</contour>
	</outline>
</glyph>
<glyph name="seven.subs" format="1">
	<unicode hex="2087"/>
	<advance width="600"/>
	<outline>
		<contour>
			<point x="180" y="-170" type="curve"/>
			<point x="210" y="-170" type="line"/>
			<point x="238" y="-46"/>
			<point x="286" y="74"/>
			<point x="418" y="202" type="curve"/>
			<point x="420" y="220" type="line"/>
			<point x="174" y="220" type="line"/>
			<point x="168" y="196" type="line"/>
			<point x="382" y="196" type="line"/>
			<point x="274" y="86"/>
			<point x="214" y="-34"/>
		</contour>
	</outline>
</glyph>
<glyph name="schwa.sups" format="1">
	<unicode hex="2094"/>
	<advance width="600"/>
	<outline>
		<contour>
			<point x="306" y="402" type="curve" smooth="yes"/>
			<point x="399" y="402"/>
			<point x="488" y="481"/>
			<point x="488" y="603" type="curve" smooth="yes"/>
			<point x="488" y="686"/>
			<point x="431" y="735"/>
			<point x="357" y="735" type="curve" smooth="yes"/>
			<point x="309" y="735"/>
			<point x="259" y="713"/>
			<point x="232" y="689" type="curve"/>
			<point x="247" y="669" type="line"/>
			<point x="276" y="693"/>
			<point x="313" y="709"/>
			<point x="353" y="709" type="curve" smooth="yes"/>
			<point x="414" y="709"/>
			<point x="457" y="669"/>
			<point x="457" y="604" type="curve" smooth="yes"/>
			<point x="457" y="502"/>
			<point x="388" y="427"/>
			<point x="308" y="427" type="curve" smooth="yes"/>
			<point x="249" y="427"/>
			<point x="214" y="469"/>
			<point x="230" y="555" type="curve"/>
			<point x="224" y="550" type="line"/>
			<point x="464" y="550" type="line"/>
			<point x="467" y="573" type="line"/>
			<point x="206" y="573" type="line"/>
			<point x="202" y="560"/>
			<point x="197" y="538"/>
			<point x="197" y="514" type="curve" smooth="yes"/>
			<point x="197" y="444"/>
			<point x="238" y="402"/>
		</contour>
	</outline>
</glyph>
<glyph name="naira" format="1">
	<unicode hex="20A6"/>
	<advance width="600"/>
	<outline>
		<contour>
			<point x="82" y="0" type="line"/>
			<point x="112" y="0" type="line"/>
			<point x="166" y="276" type="line"/>
			<point x="225" y="596" type="line"/>
			<point x="231" y="596" type="line"/>
			<point x="276" y="380" type="line"/>
			<point x="355" y="0" type="line"/>
			<point x="394" y="0" type="line"/>
			<point x="522" y="640" type="line"/>
			<point x="493" y="640" type="line"/>
			<point x="438" y="364" type="line"/>
			<point x="379" y="44" type="line"/>
			<point x="374" y="44" type="line"/>
			<point x="328" y="262" type="line"/>
			<point x="250" y="640" type="line"/>
			<point x="210" y="640" type="line"/>
		</contour>
		<contour>
			<point x="72" y="360" type="line"/>
			<point x="544" y="360" type="line"/>
			<point x="550" y="384" type="line"/>
			<point x="157" y="384" type="line"/>
			<point x="78" y="380" type="line"/>
		</contour>
		<contour>
			<point x="52" y="254" type="line"/>
			<point x="524" y="254" type="line"/>
			<point x="530" y="278" type="line"/>
			<point x="137" y="278" type="line"/>
			<point x="58" y="274" type="line"/>
		</contour>
	</outline>
</glyph>
<glyph name="won" format="2">
	<unicode hex="20A9"/>
	<advance width="600"/>
	<outline>
		<contour>
			<point x="123" y="0" type="line"/>
			<point x="158" y="0" type="line"/>
			<point x="276" y="336" type="line"/>
			<point x="358" y="572" type="line"/>
			<point x="361" y="572" type="line"/>
			<point x="348" y="336" type="line"/>
			<point x="332" y="0" type="line"/>
			<point x="371" y="0" type="line"/>
			<point x="586" y="640" type="line"/>
			<point x="556" y="640" type="line"/>
			<point x="454" y="320" type="line"/>
			<point x="360" y="28" type="line"/>
			<point x="356" y="28" type="line"/>
			<point x="374" y="320" type="line"/>
			<point x="386" y="600" type="line"/>
			<point x="346" y="600" type="line"/>
			<point x="246" y="320" type="line"/>
			<point x="147" y="28" type="line"/>
			<point x="143" y="28" type="line"/>
			<point x="168" y="320" type="line"/>
			<point x="192" y="640" type="line"/>
			<point x="160" y="640" type="line"/>
		</contour>
		<contour>
			<point x="70" y="316" type="line"/>
			<point x="542" y="316" type="line"/>
			<point x="548" y="340" type="line"/>
			<point x="156" y="340" type="line"/>
			<point x="76" y="336" type="line"/>
		</contour>
	</outline>
</glyph>
<glyph name="peso" format="1">
	<unicode hex="20B1"/>
	<advance width="600"/>
	<outline>
		<contour>
			<point x="93" y="0" type="line"/>
			<point x="120" y="0" type="line"/>
			<point x="176" y="273" type="line"/>
			<point x="267" y="273" type="line" smooth="yes"/>
			<point x="414" y="273"/>
			<point x="520" y="349"/>
			<point x="520" y="501" type="curve" smooth="yes"/>
			<point x="520" y="601"/>
			<point x="448" y="640"/>
			<point x="339" y="640" type="curve" smooth="yes"/>
			<point x="221" y="640" type="line"/>
		</contour>
		<contour>
			<point x="180" y="298" type="line"/>
			<point x="243" y="616" type="line"/>
			<point x="322" y="616" type="line" smooth="yes"/>
			<point x="430" y="616"/>
			<point x="492" y="587"/>
			<point x="492" y="498" type="curve" smooth="yes"/>
			<point x="492" y="367"/>
			<point x="408" y="298"/>
			<point x="259" y="298" type="curve" smooth="yes"/>
		</contour>
		<contour>
			<point x="112" y="501" type="line"/>
			<point x="590" y="501" type="line"/>
			<point x="594" y="525" type="line"/>
			<point x="198" y="525" type="line"/>
			<point x="115" y="521" type="line"/>
		</contour>
		<contour>
			<point x="92" y="403" type="line"/>
			<point x="570" y="403" type="line"/>
			<point x="575" y="427" type="line"/>
			<point x="179" y="427" type="line"/>
			<point x="96" y="423" type="line"/>
		</contour>
	</outline>
</glyph>
<glyph name="Omega.math" format="2">
	<unicode hex="2126"/>
	<advance width="600"/>
	<outline>
		<contour>
			<point x="-21" y="0" type="line"/>
			<point x="162" y="0" type="line"/>
			<point x="166" y="22" type="line"/>
			<point x="119" y="65"/>
			<point x="80" y="146"/>
			<point x="80" y="261" type="curve" smooth="yes"/>
			<point x="80" y="465"/>
			<point x="196" y="645"/>
			<point x="362" y="645" type="curve" smooth="yes"/>
			<point x="475" y="645"/>
			<point x="530" y="550"/>
			<point x="530" y="425" type="curve" smooth="yes"/>
			<point x="530" y="225"/>
			<point x="422" y="93"/>
			<point x="315" y="22" type="curve"/>
			<point x="311" y="0" type="line"/>
			<point x="494" y="0" type="line"/>
			<point x="499" y="26" type="line"/>
			<point x="366" y="26" type="line"/>
			<point x="367" y="30" type="line"/>
			<point x="463" y="111"/>
			<point x="561" y="234"/>
			<point x="561" y="426" type="curve" smooth="yes"/>
			<point x="561" y="567"/>
			<point x="494" y="672"/>
			<point x="371" y="672" type="curve" smooth="yes"/>
			<point x="181" y="672"/>
			<point x="50" y="483"/>
			<point x="50" y="264" type="curve" smooth="yes"/>
			<point x="50" y="159"/>
			<point x="83" y="79"/>
			<point x="122" y="30" type="curve"/>
			<point x="121" y="26" type="line"/>
			<point x="-16" y="26" type="line"/>
		</contour>
	</outline>
</glyph>
<glyph name="onetenth" format="1">
	<unicode hex="2152"/>
	<advance width="600"/>
	<outline>
		<contour>
			<point x="200" y="402" type="line"/>
			<point x="226" y="402" type="line"/>
			<point x="276" y="642" type="line"/>
			<point x="253" y="642" type="line"/>
			<point x="227" y="628"/>
			<point x="201" y="618"/>
			<point x="162" y="611" type="curve"/>
			<point x="157" y="588" type="line"/>
			<point x="239" y="588" type="line"/>
		</contour>
		<contour>
			<point x="108" y="283" type="line"/>
			<point x="594" y="459" type="line"/>
			<point x="583" y="487" type="line"/>
			<point x="101" y="302" type="line"/>
		</contour>
		<contour>
			<point x="122" y="0" type="line"/>
			<point x="148" y="0" type="line"/>
			<point x="198" y="240" type="line"/>
			<point x="175" y="240" type="line"/>
			<point x="149" y="226"/>
			<point x="123" y="216"/>
			<point x="84" y="209" type="curve"/>
			<point x="79" y="186" type="line"/>
			<point x="161" y="186" type="line"/>
		</contour>
		<contour>
			<point x="361" y="-12" type="curve" smooth="yes"/>
			<point x="442" y="-12"/>
			<point x="499" y="55"/>
			<point x="499" y="153" type="curve" smooth="yes"/>
			<point x="499" y="212"/>
			<point x="468" y="250"/>
			<point x="414" y="250" type="curve" smooth="yes"/>
			<point x="332" y="250"/>
			<point x="275" y="182"/>
			<point x="275" y="85" type="curve" smooth="yes"/>
			<point x="275" y="28"/>
			<point x="307" y="-12"/>
		</contour>
		<contour>
			<point x="304" y="90" type="curve" smooth="yes"/>
			<point x="304" y="171"/>
			<point x="352" y="225"/>
			<point x="410" y="225" type="curve" smooth="yes"/>
			<point x="449" y="225"/>
			<point x="470" y="196"/>
			<point x="470" y="147" type="curve" smooth="yes"/>
			<point x="470" y="65"/>
			<point x="423" y="14"/>
			<point x="366" y="14" type="curve" smooth="yes"/>
			<point x="327" y="14"/>
			<point x="304" y="41"/>
		</contour>
	</outline>
</glyph>
<glyph name="arrowdblright" format="2">
	<unicode hex="21D2"/>
	<advance width="600"/>
	<outline>
		<contour>
			<point x="310" y="-14" type="line"/>
			<point x="578" y="250" type="line"/>
			<point x="578" y="254" type="line"/>
			<point x="310" y="518" type="line"/>
			<point x="291" y="499" type="line"/>
			<point x="546" y="254" type="line"/>
			<point x="546" y="250" type="line"/>
			<point x="291" y="5" type="line"/>
		</contour>
		<contour>
			<point x="28" y="138" type="line"/>
			<point x="462" y="138" type="line"/>
			<point x="462" y="165" type="line"/>
			<point x="28" y="165" type="line"/>
		</contour>
		<contour>
			<point x="28" y="339" type="line"/>
			<point x="462" y="339" type="line"/>
			<point x="462" y="366" type="line"/>
			<point x="28" y="366" type="line"/>
		</contour>
	</outline>
</glyph>
<glyph name="greaterequal" format="2">
	<unicode hex="2265"/>
	<advance width="600"/>
	<outline>
		<contour>
			<point x="99" y="0" type="line"/>
			<point x="501" y="0" type="line"/>
			<point x="501" y="27" type="line"/>
			<point x="99" y="27" type="line"/>
		</contour>
		<contour>
			<point x="99" y="152" type="line"/>
			<point x="501" y="314" type="line"/>
			<point x="501" y="349" type="line"/>
			<point x="99" y="511" type="line"/>
			<point x="99" y="481" type="line"/>
			<point x="340" y="386" type="line"/>
			<point x="472" y="334" type="line"/>
			<point x="472" y="330" type="line"/>
			<point x="340" y="277" type="line"/>
			<point x="99" y="183" type="line"/>
		</contour>
	</outline>
</glyph>
<glyph name="lighthorzbxd" format="1">
	<unicode hex="2500"/>
	<advance width="600"/>
	<outline>
		<contour>
			<point x="-15" y="285" type="line"/>
			<point x="615" y="285" type="line"/>
			<point x="615" y="315" type="line"/>
			<point x="-15" y="315" type="line"/>
		</contour>
	</outline>
</glyph>
<glyph name="leftheavyrightdnlightbxd" format="1">
	<unicode hex="252D"/>
	<advance width="600"/>
	<outline>
		<contour>
			<point x="315" y="-400" type="line"/>
			<point x="315" y="285" type="line"/>
			<point x="615" y="285" type="line"/>
			<point x="615" y="315" type="line"/>
			<point x="315" y="315" type="line"/>
			<point x="315" y="330" type="line"/>
			<point x="-15" y="330" type="line"/>
			<point x="-15" y="270" type="line"/>
			<point x="285" y="270" type="line"/>
			<point x="285" y="-400" type="line"/>
		</contour>
	</outline>
</glyph>
<glyph name="leftheavyrightvertlightbxd" format="2">
	<unicode hex="253D"/>
	<advance width="600"/>
	<outline>
		<contour>
			<point x="615" y="285" type="line"/>
			<point x="615" y="315" type="line"/>
			<point x="315" y="315" type="line"/>
			<point x="315" y="1000" type="line"/>
			<point x="285" y="1000" type="line"/>
			<point x="285" y="330" type="line"/>
			<point x="-15" y="330" type="line"/>
			<point x="-15" y="270" type="line"/>
			<point x="285" y="270" type="line"/>
			<point x="285" y="-400" type="line"/>
			<point x="315" y="-400" type="line"/>
			<point x="315" y="285" type="line"/>
		</contour>
	</outline>
</glyph>
<glyph name="heavydbldashvertbxd" format="1">
	<unicode hex="254F"/>
	<advance width="600"/>
	<outline>
		<contour>
			<point x="270" y="450" type="line"/>
			<point x="330" y="450" type="line"/>
			<point x="330" y="750" type="line"/>
			<point x="270" y="750" type="line"/>
		</contour>
		<contour>
			<point x="270" y="-150" type="line"/>
			<point x="330" y="-150" type="line"/>
			<point x="330" y="150" type="line"/>
			<point x="270" y="150" type="line"/>
		</contour>
	</outline>
</glyph>
<glyph name="lightdiagupleftdnrightbxd" format="2">
	<unicode hex="2572"/>
	<advance width="600"/>
	<outline>
		<contour>
			<point x="17" y="900" type="line"/>
			<point x="0" y="900" type="line"/>
			<point x="0" y="866" type="line"/>
			<point x="583" y="-300" type="line"/>
			<point x="600" y="-300" type="line"/>
			<point x="600" y="-266" type="line"/>
		</contour>
	</outline>
</glyph>
<glyph name="lightdiagcrossbxd" format="1">
	<unicode hex="2573"/>
	<advance width="600"/>
	<outline>
		<contour>
			<point x="583" y="-300" type="line"/>
			<point x="600" y="-300" type="line"/>
			<point x="600" y="-266" type="line"/>
			<point x="317" y="300" type="line"/>
			<point x="600" y="866" type="line"/>
			<point x="600" y="900" type="line"/>
			<point x="583" y="900" type="line"/>
			<point x="300" y="334" type="line"/>
			<point x="17" y="900" type="line"/>
			<point x="0" y="900" type="line"/>
			<point x="0" y="866" type="line"/>
			<point x="283" y="300" type="line"/>
			<point x="0" y="-266" type="line"/>
			<point x="0" y="-300" type="line"/>
			<point x="17" y="-300" type="line"/>
			<point x="300" y="266" type="line"/>
		</contour>
	</outline>
</glyph>
<glyph name="squarewhite" format="2">
	<unicode hex="25A1"/>
	<advance width="600"/>
	<outline>
		<contour>
			<point x="89" y="119" type="line"/>
			<point x="511" y="119" type="line"/>
			<point x="511" y="541" type="line"/>
			<point x="89" y="541" type="line"/>
		</contour>
		<contour>
			<point x="116" y="144" type="line"/>
			<point x="116" y="516" type="line"/>
			<point x="484" y="516" type="line"/>
			<point x="484" y="144" type="line"/>
		</contour>
	</outline>
</glyph>
<glyph name="trianglesmallupwhite" format="1">
	<unicode hex="25B5"/>
	<advance width="600"/>
	<outline>
		<contour>
			<point x="139" y="135" type="line"/>
			<point x="461" y="135" type="line"/>
			<point x="461" y="137" type="line"/>
			<point x="301" y="421" type="line"/>
			<point x="299" y="421" type="line"/>
			<point x="139" y="137" type="line"/>
		</contour>
		<contour>
			<point x="175" y="156" type="line"/>
			<point x="300" y="379" type="line"/>
			<point x="425" y="156" type="line"/>
		</contour>
	</outline>
</glyph>
<glyph name="trianglerightblack" format="2">
	<unicode hex="25B6"/>
	<advance width="600"/>
	<outline>
		<contour>
			<point x="58" y="110" type="line"/>
			<point x="60" y="110" type="line"/>
			<point x="562" y="349" type="line"/>
			<point x="562" y="351" type="line"/>
			<point x="60" y="590" type="line"/>
			<point x="58" y="590" type="line"/>
		</contour>
	</outline>
</glyph>
<glyph name="trianglerightwhite" format="2">
	<unicode hex="25B7"/>
	<advance width="600"/>
	<outline>
		<contour>
			<point x="58" y="110" type="line"/>
			<point x="60" y="110" type="line"/>
			<point x="562" y="349" type="line"/>
			<point x="562" y="351" type="line"/>
			<point x="60" y="590" type="line"/>
			<point x="58" y="590" type="line"/>
		</contour>
		<contour>
			<point x="79" y="145" type="line"/>
			<point x="79" y="556" type="line"/>
			<point x="516" y="350" type="line"/>
		</contour>
	</outline>
</glyph>
<glyph name="triangleleftwhite" format="2">
	<unicode hex="25C1"/>
	<advance width="600"/>
	<outline>
		<contour>
			<point x="540" y="110" type="line"/>
			<point x="542" y="110" type="line"/>
			<point x="542" y="590" type="line"/>
			<point x="540" y="590" type="line"/>
			<point x="38" y="351" type="line"/>
			<point x="38" y="349" type="line"/>
		</contour>
		<contour>
			<point x="521" y="145" type="line"/>
			<point x="85" y="350" type="line"/>
			<point x="521" y="556" type="line"/>
		</contour>
	</outline>
</glyph>
<glyph name="circlewhite" format="2">
	<unicode hex="25CB"/>
	<advance width="600"/>
	<outline>
		<contour>
			<point x="300" y="113" type="curve" smooth="yes"/>
			<point x="428" y="113"/>
			<point x="519" y="206"/>
			<point x="519" y="330" type="curve" smooth="yes"/>
			<point x="519" y="454"/>
			<point x="428" y="547"/>
			<point x="300" y="547" type="curve" smooth="yes"/>
			<point x="172" y="547"/>
			<point x="81" y="454"/>
			<point x="81" y="330" type="curve" smooth="yes"/>
			<point x="81" y="206"/>
			<point x="172" y="113"/>
		</contour>
		<contour>
			<point x="300" y="140" type="curve" smooth="yes"/>
			<point x="192" y="140"/>
			<point x="112" y="220"/>
			<point x="112" y="330" type="curve" smooth="yes"/>
			<point x="112" y="440"/>
			<point x="192" y="520"/>
			<point x="300" y="520" type="curve" smooth="yes"/>
			<point x="408" y="520"/>
			<point x="488" y="440"/>
			<point x="488" y="330" type="curve" smooth="yes"/>
			<point x="488" y="220"/>
			<point x="408" y="140"/>
		</contour>
	</outline>
</glyph>
<glyph name="invcircle" format="2">
	<unicode hex="25D9"/>
	<advance width="600"/>
	<outline>
		<contour>
			<point x="89" y="119" type="line"/>
			<point x="511" y="119" type="line"/>
			<point x="511" y="541" type="line"/>
			<point x="89" y="541" type="line"/>
		</contour>
		<contour>
			<point x="300" y="123" type="curve" smooth="yes"/>
			<point x="178" y="123"/>
			<point x="93" y="212"/>
			<point x="93" y="330" type="curve" smooth="yes"/>
			<point x="93" y="448"/>
			<point x="178" y="537"/>
			<point x="300" y="537" type="curve" smooth="yes"/>
			<point x="422" y="537"/>
			<point x="507" y="448"/>
			<point x="507" y="330" type="curve" smooth="yes"/>
			<point x="507" y="212"/>
			<point x="422" y="123"/>
		</contour>
		<contour>
			<point x="300" y="150" type="curve" smooth="yes"/>
			<point x="402" y="150"/>
			<point x="476" y="226"/>
			<point x="476" y="330" type="curve" smooth="yes"/>
			<point x="476" y="434"/>
			<point x="402" y="510"/>
			<point x="300" y="510" type="curve" smooth="yes"/>
			<point x="198" y="510"/>
			<point x="124" y="434"/>
			<point x="124" y="330" type="curve" smooth="yes"/>
			<point x="124" y="226"/>
			<point x="198" y="150"/>
		</contour>
	</outline>
</glyph>
<glyph name="bulletwhite" format="2">
	<unicode hex="25E6"/>
	<advance width="600"/>
	<outline>
		<contour>
			<point x="263" y="119" type="curve" smooth="yes"/>
			<point x="351" y="119"/>
			<point x="435" y="188"/>
			<point x="435" y="285" type="curve" smooth="yes"/>
			<point x="435" y="360"/>
			<point x="386" y="405"/>
			<point x="320" y="405" type="curve" smooth="yes"/>
			<point x="232" y="405"/>
			<point x="149" y="336"/>
			<point x="149" y="238" type="curve" smooth="yes"/>
			<point x="149" y="164"/>
			<point x="198" y="119"/>
		</contour>
		<contour>
			<point x="268" y="146" type="curve" smooth="yes"/>
			<point x="215" y="146"/>
			<point x="177" y="179"/>
			<point x="177" y="236" type="curve" smooth="yes"/>
			<point x="177" y="322"/>
			<point x="248" y="378"/>
			<point x="315" y="378" type="curve" smooth="yes"/>
			<point x="368" y="378"/>
			<point x="406" y="344"/>
			<point x="406" y="288" type="curve" smooth="yes"/>
			<point x="406" y="201"/>
			<point x="335" y="146"/>
		</contour>
	</outline>
</glyph>
<glyph name="sun" format="2">
	<unicode hex="263C"/>
	<advance width="600"/>
	<outline>
		<contour>
			<point x="300" y="153" type="curve" smooth="yes"/>
			<point x="406" y="153"/>
			<point x="479" y="228"/>
			<point x="479" y="330" type="curve" smooth="yes"/>
			<point x="479" y="432"/>
			<point x="406" y="507"/>
			<point x="300" y="507" type="curve" smooth="yes"/>
			<point x="194" y="507"/>
			<point x="121" y="432"/>
			<point x="121" y="330" type="curve" smooth="yes"/>
			<point x="121" y="228"/>
			<point x="194" y="153"/>
		</contour>
		<contour>
			<point x="300" y="180" type="curve" smooth="yes"/>
			<point x="214" y="180"/>
			<point x="151" y="242"/>
			<point x="151" y="330" type="curve" smooth="yes"/>
			<point x="151" y="418"/>
			<point x="214" y="480"/>
			<point x="300" y="480" type="curve" smooth="yes"/>
			<point x="386" y="480"/>
			<point x="449" y="418"/>
			<point x="449" y="330" type="curve" smooth="yes"/>
			<point x="449" y="242"/>
			<point x="386" y="180"/>
		</contour>
		<contour>
			<point x="287" y="490" type="line"/>
			<point x="313" y="490" type="line"/>
			<point x="313" y="630" type="line"/>
			<point x="287" y="630" type="line"/>
		</contour>
		<contour>
			<point x="171" y="436" type="line"/>
			<point x="190" y="456" type="line"/>
			<point x="88" y="560" type="line"/>
			<point x="69" y="540" type="line"/>
		</contour>
		<contour>
			<point x="427" y="438" type="line"/>
			<point x="531" y="540" type="line"/>
			<point x="512" y="560" type="line"/>
			<point x="408" y="458" type="line"/>
		</contour>
		<contour>
			<point x="4" y="317" type="line"/>
			<point x="144" y="317" type="line"/>
			<point x="144" y="343" type="line"/>
			<point x="4" y="343" type="line"/>
		</contour>
		<contour>
			<point x="456" y="317" type="line"/>
			<point x="596" y="317" type="line"/>
			<point x="596" y="343" type="line"/>
			<point x="456" y="343" type="line"/>
		</contour>
		<contour>
			<point x="88" y="98" type="line"/>
			<point x="192" y="200" type="line"/>
			<point x="173" y="220" type="line"/>
			<point x="69" y="118" type="line"/>
		</contour>
		<contour>
			<point x="512" y="98" type="line"/>
			<point x="531" y="118" type="line"/>
			<point x="429" y="222" type="line"/>
			<point x="410" y="202" type="line"/>
		</contour>
		<contour>
			<point x="287" y="30" type="line"/>
			<point x="313" y="30" type="line"/>
			<point x="313" y="170" type="line"/>
			<point x="287" y="170" type="line"/>
		</contour>
	</outline>
</glyph>
<glyph name="squareshadow" format="2">
	<unicode hex="2752"/>
	<advance width="600"/>
	<outline>
		<contour>
			<point x="89" y="119" type="line"/>
			<point x="472" y="119" type="line"/>
			<point x="511" y="162" type="line"/>
			<point x="511" y="541" type="line"/>
			<point x="136" y="541" type="line"/>
			<point x="89" y="504" type="line"/>
		</contour>
		<contour>
			<point x="116" y="144" type="line"/>
			<point x="116" y="486" type="line"/>
			<point x="454" y="486" type="line"/>
			<point x="454" y="144" type="line"/>
		</contour>
	</outline>
</glyph>
<glyph name="brackhalfbotright" format="1">
	<unicode hex="2E25"/>
	<advance width="600"/>
	<outline>
		<contour>
			<point x="16" y="-152" type="line"/>
			<point x="272" y="-152" type="line"/>
			<point x="358" y="278" type="line"/>
			<point x="333" y="278" type="line"/>
			<point x="252" y="-130" type="line"/>
			<point x="20" y="-130" type="line"/>
		</contour>
	</outline>
</glyph>
<glyph name="uniE0A0" format="2">
	<unicode hex="E0A0"/>
	<advance width="600"/>
	<outline>
		<contour>
			<point x="157" y="-280" type="line"/>
			<point x="157" y="-2" type="line" smooth="yes"/>
			<point x="157" y="281"/>
			<point x="473" y="177"/>
			<point x="473" y="480" type="curve" smooth="yes"/>
			<point x="473" y="725" type="line"/>
			<point x="593" y="725" type="line"/>
			<point x="460" y="900" type="line"/>
			<point x="325" y="725" type="line"/>
			<point x="445" y="725" type="line"/>
			<point x="445" y="482" type="line" smooth="yes"/>
			<point x="445" y="196"/>
			<point x="129" y="298"/>
			<point x="129" y="0" type="curve" smooth="yes"/>
			<point x="129" y="-280" type="line"/>
		</contour>
		<contour>
			<point x="157" y="363" type="line"/>
			<point x="157" y="1060" type="line"/>
			<point x="129" y="1060" type="line"/>
			<point x="129" y="340" type="line"/>
		</contour>
	</outline>
</glyph>
<glyph name="a.supa" format="2">
	<advance width="600"/>
	<outline>
		<contour>
			<point x="283" y="402" type="curve" smooth="yes"/>
			<point x="337" y="402"/>
			<point x="386" y="429"/>
			<point x="423" y="458" type="curve"/>
			<point x="425" y="458" type="line"/>
			<point x="420" y="410" type="line"/>
			<point x="442" y="410" type="line"/>
			<point x="483" y="612" type="line" smooth="yes"/>
			<point x="496" y="681"/>
			<point x="478" y="735"/>
			<point x="396" y="735" type="curve" smooth="yes"/>
			<point x="336" y="735"/>
			<point x="282" y="710"/>
			<point x="254" y="692" type="curve"/>
			<point x="267" y="669" type="line"/>
			<point x="296" y="688"/>
			<point x="336" y="709"/>
			<point x="388" y="709" type="curve" smooth="yes"/>
			<point x="456" y="709"/>
			<point x="463" y="663"/>
			<point x="452" y="609" type="curve"/>
			<point x="280" y="591"/>
			<point x="201" y="552"/>
			<point x="201" y="474" type="curve" smooth="yes"/>
			<point x="201" y="426"/>
			<point x="235" y="402"/>
		</contour>
		<contour>
			<point x="289" y="429" type="curve" smooth="yes"/>
			<point x="258" y="429"/>
			<point x="233" y="444"/>
			<point x="233" y="475" type="curve" smooth="yes"/>
			<point x="233" y="537"/>
			<point x="304" y="569"/>
			<point x="448" y="586" type="curve"/>
			<point x="428" y="486" type="line"/>
			<point x="380" y="451"/>
			<point x="341" y="429"/>
		</contour>
	</outline>
</glyph>
<glyph name="at.case" format="1">
	<advance width="600"/>
	<outline>
		<contour>
			<point x="274" y="-12" type="curve" smooth="yes"/>
			<point x="336" y="-12"/>
			<point x="395" y="2"/>
			<point x="450" y="37" type="curve"/>
			<point x="438" y="60" type="line"/>
			<point x="392" y="29"/>
			<point x="339" y="15"/>
			<point x="279" y="15" type="curve" smooth="yes"/>
			<point x="157" y="15"/>
			<point x="83" y="107"/>
			<point x="83" y="251" type="curve" smooth="yes"/>
			<point x="83" y="485"/>
			<point x="237" y="647"/>
			<point x="414" y="647" type="curve" smooth="yes"/>
			<point x="528" y="647"/>
			<point x="567" y="575"/>
			<point x="539" y="462" type="curve"/>
			<point x="330" y="435"/>
			<point x="226" y="378"/>
			<point x="226" y="268" type="curve" smooth="yes"/>
			<point x="226" y="201"/>
			<point x="272" y="168"/>
			<point x="332" y="168" type="curve" smooth="yes"/>
			<point x="392" y="168"/>
			<point x="452" y="205"/>
			<point x="492" y="242" type="curve"/>
			<point x="496" y="242" type="line"/>
			<point x="487" y="180" type="line"/>
			<point x="512" y="180" type="line"/>
			<point x="571" y="477" type="line" smooth="yes"/>
			<point x="592" y="584"/>
			<point x="549" y="672"/>
			<point x="421" y="672" type="curve" smooth="yes"/>
			<point x="223" y="672"/>
			<point x="54" y="504"/>
			<point x="54" y="249" type="curve" smooth="yes"/>
			<point x="54" y="85"/>
			<point x="144" y="-12"/>
		</contour>
		<contour>
			<point x="341" y="195" type="curve" smooth="yes"/>
			<point x="287" y="195"/>
			<point x="256" y="223"/>
			<point x="256" y="272" type="curve" smooth="yes"/>
			<point x="256" y="359"/>
			<point x="334" y="409"/>
			<point x="535" y="437" type="curve"/>
			<point x="504" y="282" type="line"/>
			<point x="443" y="223"/>
			<point x="393" y="195"/>
		</contour>
	</outline>
</glyph>
<glyph name="brevecmb.cap" format="2">
	<advance width="600"/>
	<outline>
		<contour>
			<point x="378" y="712" type="curve" smooth="yes"/>
			<point x="467" y="712"/>
			<point x="518" y="779"/>
			<point x="534" y="834" type="curve"/>
			<point x="508" y="838" type="line"/>
			<point x="490" y="786"/>
			<point x="450" y="738"/>
			<point x="384" y="738" type="curve" smooth="yes"/>
			<point x="317" y="738"/>
			<point x="293" y="786"/>
			<point x="296" y="838" type="curve"/>
			<point x="270" y="834" type="line"/>
			<point x="267" y="779"/>
			<point x="293" y="712"/>
		</contour>
	</outline>
	<anchor name="_aboveUC" x="374" y="680"/>
</glyph>
<glyph name="brevetildecmb" format="2">
	<advance width="600"/>
	<outline>
		<contour>
			<point x="354" y="570" type="curve" smooth="yes"/>
			<point x="448" y="570"/>
			<point x="495" y="628"/>
			<point x="510" y="672" type="curve"/>
			<point x="484" y="676" type="line"/>
			<point x="472" y="638"/>
			<point x="428" y="596"/>
			<point x="359" y="596" type="curve" smooth="yes"/>
			<point x="290" y="596"/>
			<point x="262" y="638"/>
			<point x="264" y="676" type="curve"/>
			<point x="238" y="672" type="line"/>
			<point x="235" y="628"/>
			<point x="260" y="570"/>
		</contour>
		<contour>
			<point x="450" y="706" type="curve" smooth="yes"/>
			<point x="494" y="706"/>
			<point x="514" y="745"/>
			<point x="522" y="776" type="curve"/>
			<point x="498" y="778" type="line"/>
			<point x="488" y="748"/>
			<point x="478" y="732"/>
			<point x="455" y="732" type="curve" smooth="yes"/>
			<point x="409" y="732"/>
			<point x="384" y="774"/>
			<point x="323" y="774" type="curve" smooth="yes"/>
			<point x="279" y="774"/>
			<point x="260" y="735"/>
			<point x="252" y="704" type="curve"/>
			<point x="275" y="702" type="line"/>
			<point x="285" y="732"/>
			<point x="295" y="748"/>
			<point x="318" y="748" type="curve" smooth="yes"/>
			<point x="363" y="748"/>
			<point x="390" y="706"/>
		</contour>
	</outline>
	<anchor name="_aboveLC" x="338" y="500"/>
</glyph>
<glyph name="circumflexgravecmb" format="1">
	<advance width="600"/>
	<outline>
		<contour>
			<point x="250" y="574" type="line"/>
			<point x="372" y="654" type="line"/>
			<point x="376" y="654" type="line"/>
			<point x="462" y="574" type="line"/>
			<point x="478" y="590" type="line"/>
			<point x="388" y="684" type="line"/>
			<point x="360" y="684" type="line"/>
			<point x="238" y="592" type="line"/>
		</contour>
		<contour>
			<point x="266" y="640" type="line"/>
			<point x="286" y="656" type="line"/>
			<point x="194" y="768" type="line"/>
			<point x="168" y="748" type="line"/>
		</contour>
		<contour>
			<point name="_aboveLC" x="338" y="500" type="move"/>
		</contour>
	</outline>
</glyph>
<glyph name="comma.subs" format="1">
	<advance width="600"/>
	<outline>
		<contour>
			<point x="173" y="-274" type="line"/>
			<point x="223" y="-248"/>
			<point x="261" y="-206"/>
			<point x="261" y="-152" type="curve" smooth="yes"/>
			<point x="261" y="-126"/>
			<point x="249" y="-110"/>
			<point x="231" y="-110" type="curve" smooth="yes"/>
			<point x="213" y="-110"/>
			<point x="197" y="-121"/>
			<point x="197" y="-145" type="curve" smooth="yes"/>
			<point x="197" y="-163"/>
			<point x="209" y="-172"/>
			<point x="223" y="-172" type="curve" smooth="yes"/>
			<point x="231" y="-172"/>
			<point x="237" y="-172"/>
			<point x="245" y="-164" type="curve"/>
			<point x="227" y="-130" type="line"/>
			<point x="229" y="-170" type="line"/>
			<point x="223" y="-208"/>
			<point x="197" y="-234"/>
			<point x="163" y="-252" type="curve"/>
		</contour>
	</outline>
</glyph>
<glyph name="dieresisgravecmb" format="1">
	<advance width="600"/>
	<outline>
		<contour>
			<point x="280" y="602" type="curve" smooth="yes"/>
			<point x="296" y="602"/>
			<point x="312" y="618"/>
			<point x="312" y="638" type="curve" smooth="yes"/>
			<point x="312" y="656"/>
			<point x="302" y="666"/>
			<point x="286" y="666" type="curve" smooth="yes"/>
			<point x="270" y="666"/>
			<point x="254" y="650"/>
			<point x="254" y="628" type="curve" smooth="yes"/>
			<point x="254" y="612"/>
			<point x="264" y="602"/>
		</contour>
		<contour>
			<point x="446" y="602" type="curve" smooth="yes"/>
			<point x="462" y="602"/>
			<point x="478" y="618"/>
			<point x="478" y="638" type="curve" smooth="yes"/>
			<point x="478" y="656"/>
			<point x="468" y="666"/>
			<point x="452" y="666" type="curve" smooth="yes"/>
			<point x="436" y="666"/>
			<point x="420" y="650"/>
			<point x="420" y="628" type="curve" smooth="yes"/>
			<point x="420" y="612"/>
			<point x="430" y="602"/>
		</contour>
		<contour>
			<point x="388" y="695" type="line"/>
			<point x="406" y="708" type="line"/>
			<point x="334" y="816" type="line"/>
			<point x="312" y="798" type="line"/>
		</contour>
		<contour>
			<point name="_aboveLC" x="338" y="500" type="move"/>
		</contour>
	</outline>
</glyph>
<glyph name="dotaccentcmb.cap" format="1">
	<advance width="600"/>
	<outline>
		<contour>
			<point x="386" y="726" type="curve" smooth="yes"/>
			<point x="404" y="726"/>
			<point x="422" y="742"/>
			<point x="422" y="764" type="curve" smooth="yes"/>
			<point x="422" y="782"/>
			<point x="410" y="794"/>
			<point x="394" y="794" type="curve" smooth="yes"/>
			<point x="376" y="794"/>
			<point x="358" y="778"/>
			<point x="358" y="754" type="curve" smooth="yes"/>
			<point x="358" y="738"/>
			<point x="370" y="726"/>
		</contour>
		<contour>
			<point name="_aboveUC" x="374" y="680" type="move"/>
		</contour>
	</outline>
</glyph>
<glyph name="e.sups" format="1">
	<advance width="600"/>
	<outline>
		<contour>
			<point x="335" y="402" type="curve" smooth="yes"/>
			<point x="389" y="402"/>
			<point x="436" y="429"/>
			<point x="462" y="452" type="curve"/>
			<point x="446" y="472" type="line"/>
			<point x="417" y="448"/>
			<point x="384" y="428"/>
			<point x="339" y="428" type="curve" smooth="yes"/>
			<point x="283" y="428"/>
			<point x="236" y="458"/>
			<point x="236" y="540" type="curve" smooth="yes"/>
			<point x="236" y="638"/>
			<point x="312" y="708"/>
			<point x="388" y="708" type="curve" smooth="yes"/>
			<point x="447" y="708"/>
			<point x="484" y="670"/>
			<point x="466" y="582" type="curve"/>
			<point x="472" y="587" type="line"/>
			<point x="232" y="587" type="line"/>
			<point x="229" y="564" type="line"/>
			<point x="490" y="564" type="line"/>
			<point x="494" y="578"/>
			<point x="498" y="598"/>
			<point x="498" y="624" type="curve" smooth="yes"/>
			<point x="498" y="693"/>
			<point x="458" y="734"/>
			<point x="390" y="734" type="curve" smooth="yes"/>
			<point x="301" y="734"/>
			<point x="208" y="656"/>
			<point x="208" y="534" type="curve" smooth="yes"/>
			<point x="208" y="442"/>
			<point x="267" y="402"/>
		</contour>
	</outline>
</glyph>
<glyph name="egrave.sups" format="2">
	<advance width="600"/>
	<outline>
		<contour>
			<point x="425" y="784" type="line"/>
			<point x="440" y="796" type="line"/>
			<point x="366" y="906" type="line"/>
			<point x="346" y="890" type="line"/>
		</contour>
		<component base="e.sups"/>
	</outline>
</glyph>
<glyph name="five.dnom" format="2">
	<advance width="600"/>
	<outline>
		<contour>
			<point x="247" y="-12" type="curve" smooth="yes"/>
			<point x="322" y="-12"/>
			<point x="377" y="32"/>
			<point x="377" y="102" type="curve" smooth="yes"/>
			<point x="377" y="162"/>
			<point x="339" y="192"/>
			<point x="286" y="192" type="curve" smooth="yes"/>
			<point x="259" y="192"/>
			<point x="230" y="183"/>
			<point x="208" y="168" type="curve"/>
			<point x="236" y="276" type="line"/>
			<point x="389" y="276" type="line"/>
			<point x="394" y="300" type="line"/>
			<point x="216" y="300" type="line"/>
			<point x="177" y="150" type="line"/>
			<point x="194" y="136" type="line"/>
			<point x="220" y="155"/>
			<point x="247" y="167"/>
			<point x="277" y="167" type="curve" smooth="yes"/>
			<point x="324" y="167"/>
			<point x="347" y="144"/>
			<point x="347" y="101" type="curve" smooth="yes"/>
			<point x="347" y="45"/>
			<point x="303" y="13"/>
			<point x="250" y="13" type="curve" smooth="yes"/>
			<point x="201" y="13"/>
			<point x="177" y="37"/>
			<point x="155" y="63" type="curve"/>
			<point x="136" y="45" type="line"/>
			<point x="158" y="18"/>
			<point x="192" y="-12"/>
		</contour>
	</outline>
</glyph>
<glyph name="fl" format="1">
	<advance width="600"/>
	<outline>
		<contour>
			<point x="100" y="0" type="line"/>
			<point x="128" y="0" type="line"/>
			<point x="218" y="452" type="line"/>
			<point x="336" y="452" type="line"/>
			<point x="342" y="478" type="line"/>
			<point x="224" y="478" type="line"/>
			<point x="248" y="596" type="line" smooth="yes"/>
			<point x="262" y="664"/>
			<point x="294" y="708"/>
			<point x="342" y="708" type="curve" smooth="yes"/>
			<point x="372" y="708"/>
			<point x="392" y="701"/>
			<point x="410" y="690" type="curve"/>
			<point x="424" y="712" type="line"/>
			<point x="404" y="725"/>
			<point x="381" y="734"/>
			<point x="344" y="734" type="curve" smooth="yes"/>
			<point x="282" y="734"/>
			<point x="239" y="690"/>
			<point x="220" y="596" type="curve" smooth="yes"/>
			<point x="196" y="478" type="line"/>
			<point x="132" y="474" type="line"/>
			<point x="128" y="452" type="line"/>
			<point x="190" y="452" type="line"/>
		</contour>
		<contour>
			<point x="394" y="-12" type="curve" smooth="yes"/>
			<point x="409" y="-12"/>
			<point x="416" y="-11"/>
			<point x="428" y="-6" type="curve"/>
			<point x="424" y="18" type="line"/>
			<point x="411" y="13"/>
			<point x="408" y="14"/>
			<point x="402" y="14" type="curve" smooth="yes"/>
			<point x="392" y="14"/>
			<point x="388" y="20"/>
			<point x="388" y="28" type="curve" smooth="yes"/>
			<point x="388" y="32"/>
			<point x="388" y="38"/>
			<point x="390" y="48" type="curve" smooth="yes"/>
			<point x="524" y="722" type="line"/>
			<point x="496" y="722" type="line"/>
			<point x="362" y="50" type="line" smooth="yes"/>
			<point x="360" y="40"/>
			<point x="358" y="30"/>
			<point x="358" y="24" type="curve" smooth="yes"/>
			<point x="358" y="0"/>
			<point x="374" y="-12"/>
		</contour>
	</outline>
</glyph>
<glyph name="four.dnom" format="1">
	<advance width="600"/>
	<outline>
		<contour>
			<point x="284" y="0" type="line"/>
			<point x="311" y="0" type="line"/>
			<point x="351" y="196" type="line"/>
			<point x="326" y="196" type="line"/>
		</contour>
		<contour>
			<point x="137" y="84" type="line"/>
			<point x="376" y="84" type="line"/>
			<point x="381" y="107" type="line"/>
			<point x="178" y="107" type="line"/>
			<point x="330" y="300" type="line"/>
			<point x="312" y="312" type="line"/>
			<point x="140" y="98" type="line"/>
		</contour>
	</outline>
</glyph>
<glyph name="gravecmb.cap" format="2">
	<advance width="600"/>
	<outline>
		<contour>
			<point x="402" y="706" type="line"/>
			<point x="418" y="720" type="line"/>
			<point x="316" y="848" type="line"/>
			<point x="292" y="828" type="line"/>
		</contour>
	</outline>
	<anchor name="_aboveUC" x="374" y="680"/>
</glyph>
<glyph name="lenistildecmb" format="1">
	<advance width="600"/>
	<outline>
		<contour>
			<point x="447" y="706" type="curve" smooth="yes"/>
			<point x="491" y="706"/>
			<point x="511" y="745"/>
			<point x="519" y="776" type="curve"/>
			<point x="495" y="778" type="line"/>
			<point x="485" y="748"/>
			<point x="475" y="732"/>
			<point x="452" y="732" type="curve" smooth="yes"/>
			<point x="406" y="732"/>
			<point x="381" y="774"/>
			<point x="320" y="774" type="curve" smooth="yes"/>
			<point x="276" y="774"/>
			<point x="257" y="735"/>
			<point x="249" y="704" type="curve"/>
			<point x="272" y="702" type="line"/>
			<point x="282" y="732"/>
			<point x="292" y="748"/>
			<point x="315" y="748" type="curve" smooth="yes"/>
			<point x="360" y="748"/>
			<point x="387" y="706"/>
		</contour>
		<contour>
			<point x="329" y="562" type="line"/>
			<point x="365" y="572"/>
			<point x="409" y="592"/>
			<point x="416" y="626" type="curve" smooth="yes"/>
			<point x="424" y="667"/>
			<point x="379" y="682"/>
			<point x="327" y="684" type="curve"/>
			<point x="320" y="660" type="line"/>
			<point x="368" y="659"/>
			<point x="390" y="646"/>
			<point x="385" y="622" type="curve" smooth="yes"/>
			<point x="382" y="606"/>
			<point x="357" y="592"/>
			<point x="326" y="584" type="curve"/>
		</contour>
		<contour>
			<point name="_aboveLC" x="338" y="500" type="move"/>
		</contour>
	</outline>
</glyph>
<glyph name="m.sups" format="1">
	<advance width="600"/>
	<outline>
		<contour>
			<point x="110" y="410" type="line"/>
			<point x="136" y="410" type="line"/>
			<point x="182" y="640" type="line"/>
			<point x="224" y="684"/>
			<point x="266" y="710"/>
			<point x="296" y="710" type="curve" smooth="yes"/>
			<point x="330" y="710"/>
			<point x="348" y="690"/>
			<point x="348" y="650" type="curve" smooth="yes"/>
			<point x="348" y="638"/>
			<point x="346" y="628"/>
			<point x="342" y="610" type="curve" smooth="yes"/>
			<point x="302" y="410" type="line"/>
			<point x="328" y="410" type="line"/>
			<point x="374" y="640" type="line"/>
			<point x="414" y="684"/>
			<point x="456" y="710"/>
			<point x="486" y="710" type="curve" smooth="yes"/>
			<point x="520" y="710"/>
			<point x="538" y="690"/>
			<point x="538" y="650" type="curve" smooth="yes"/>
			<point x="538" y="640"/>
			<point x="536" y="628"/>
			<point x="532" y="610" type="curve" smooth="yes"/>
			<point x="492" y="410" type="line"/>
			<point x="518" y="410" type="line"/>
			<point x="558" y="614" type="line" smooth="yes"/>
			<point x="562" y="632"/>
			<point x="564" y="644"/>
			<point x="564" y="656" type="curve" smooth="yes"/>
			<point x="564" y="704"/>
			<point x="544" y="734"/>
			<point x="488" y="734" type="curve" smooth="yes"/>
			<point x="454" y="734"/>
			<point x="416" y="710"/>
			<point x="372" y="672" type="curve"/>
			<point x="368" y="704"/>
			<point x="354" y="734"/>
			<point x="298" y="734" type="curve" smooth="yes"/>
			<point x="264" y="734"/>
			<point x="226" y="710"/>
			<point x="192" y="678" type="curve"/>
			<point x="188" y="678" type="line"/>
			<point x="194" y="726" type="line"/>
			<point x="172" y="726" type="line"/>
		</contour>
	</outline>
</glyph>
<glyph name="macroncmb.cap" format="1">
	<advance width="600"/>
	<outline>
		<contour>
			<point x="270" y="736" type="line"/>
			<point x="500" y="736" type="line"/>
			<point x="506" y="762" type="line"/>
			<point x="276" y="762" type="line"/>
		</contour>
		<contour>
			<point name="_aboveUC" x="374" y="680" type="move"/>
		</contour>
	</outline>
</glyph>
<glyph name="one.a" format="2">
	<advance width="600"/>
	<outline>
		<contour>
			<point x="54" y="0" type="line"/>
			<point x="464" y="0" type="line"/>
			<point x="468" y="26" type="line"/>
			<point x="280" y="26" type="line"/>
			<point x="404" y="640" type="line"/>
			<point x="380" y="640" type="line"/>
			<point x="194" y="496" type="line"/>
			<point x="208" y="476" type="line"/>
			<point x="381" y="592" type="line"/>
			<point x="369" y="610" type="line"/>
			<point x="252" y="26" type="line"/>
			<point x="60" y="26" type="line"/>
		</contour>
	</outline>
</glyph>
<glyph name="one.cap" format="1">
	<advance width="600"/>
	<outline>
		<contour>
			<point x="54" y="0" type="line"/>
			<point x="464" y="0" type="line"/>
			<point x="468" y="26" type="line"/>
			<point x="280" y="26" type="line"/>
			<point x="408" y="660" type="line"/>
			<point x="384" y="660" type="line"/>
			<point x="350" y="642"/>
			<point x="290" y="628"/>
			<point x="230" y="622" type="curve"/>
			<point x="226" y="602" type="line"/>
			<point x="368" y="602" type="line"/>
			<point x="252" y="26" type="line"/>
			<point x="60" y="26" type="line"/>
		</contour>
	</outline>
</glyph>
<glyph name="one.onum" format="1">
	<advance width="600"/>
	<outline>
		<contour>
			<point x="54" y="0" type="line"/>
			<point x="464" y="0" type="line"/>
			<point x="468" y="26" type="line"/>
			<point x="280" y="26" type="line"/>
			<point x="390" y="570" type="line"/>
			<point x="366" y="570" type="line"/>
			<point x="332" y="552"/>
			<point x="272" y="538"/>
			<point x="212" y="532" type="curve"/>
			<point x="208" y="512" type="line"/>
			<point x="350" y="512" type="line"/>
			<point x="252" y="26" type="line"/>
			<point x="60" y="26" type="line"/>
		</contour>
	</outline>
</glyph>
<glyph name="seven.dnom" format="1">
	<advance width="600"/>
	<outline>
		<contour>
			<point x="210" y="0" type="curve"/>
			<point x="240" y="0" type="line"/>
			<point x="266" y="106"/>
			<point x="299" y="182"/>
			<point x="409" y="281" type="curve"/>
			<point x="413" y="300" type="line"/>
			<point x="188" y="300" type="line"/>
			<point x="183" y="277" type="line"/>
			<point x="385" y="277" type="line"/>
			<point x="380" y="282" type="line"/>
			<point x="276" y="189"/>
			<point x="240" y="115"/>
		</contour>
	</outline>
</glyph>
<glyph name="seven.onum" format="2">
	<advance width="600"/>
	<outline>
		<contour>
			<point x="167" y="-70" type="curve"/>
			<point x="201" y="-70" type="line"/>
			<point x="261" y="182"/>
			<point x="343" y="345"/>
			<point x="557" y="552" type="curve"/>
			<point x="561" y="570" type="line"/>
			<point x="122" y="570" type="line"/>
			<point x="117" y="544" type="line"/>
			<point x="539" y="544" type="line"/>
			<point x="536" y="565" type="line"/>
			<point x="320" y="358"/>
			<point x="231" y="197"/>
		</contour>
	</outline>
</glyph>
<glyph name="six.cap" format="1">
	<advance width="600"/>
	<outline>
		<contour>
			<point x="272" y="-12" type="curve" smooth="yes"/>
			<point x="400" y="-12"/>
			<point x="498" y="90"/>
			<point x="498" y="228" type="curve" smooth="yes"/>
			<point x="498" y="354"/>
			<point x="418" y="404"/>
			<point x="334" y="404" type="curve" smooth="yes"/>
			<point x="230" y="404"/>
			<point x="144" y="344"/>
			<point x="94" y="274" type="curve"/>
			<point x="97" y="244" type="line"/>
			<point x="160" y="328"/>
			<point x="242" y="378"/>
			<point x="332" y="378" type="curve" smooth="yes"/>
			<point x="400" y="378"/>
			<point x="470" y="334"/>
			<point x="470" y="222" type="curve" smooth="yes"/>
			<point x="470" y="110"/>
			<point x="386" y="14"/>
			<point x="274" y="14" type="curve" smooth="yes"/>
			<point x="176" y="14"/>
			<point x="102" y="92"/>
			<point x="102" y="232" type="curve" smooth="yes"/>
			<point x="102" y="518"/>
			<point x="256" y="646"/>
			<point x="388" y="646" type="curve" smooth="yes"/>
			<point x="442" y="646"/>
			<point x="488" y="628"/>
			<point x="526" y="574" type="curve"/>
			<point x="548" y="590" type="line"/>
			<point x="514" y="644"/>
			<point x="456" y="672"/>
			<point x="390" y="672" type="curve" smooth="yes"/>
			<point x="240" y="672"/>
			<point x="74" y="534"/>
			<point x="74" y="226" type="curve" smooth="yes"/>
			<point x="74" y="78"/>
			<point x="158" y="-12"/>
		</contour>
	</outline>
</glyph>
<glyph name="three.dnom" format="1">
	<advance width="600"/>
	<outline>
		<contour>
			<point x="252" y="-12" type="curve" smooth="yes"/>
			<point x="315" y="-12"/>
			<point x="366" y="22"/>
			<point x="366" y="82" type="curve" smooth="yes"/>
			<point x="366" y="125"/>
			<point x="333" y="150"/>
			<point x="292" y="155" type="curve"/>
			<point x="292" y="153" type="line"/>
			<point x="350" y="165"/>
			<point x="381" y="198"/>
			<point x="381" y="242" type="curve" smooth="yes"/>
			<point x="381" y="289"/>
			<point x="347" y="312"/>
			<point x="300" y="312" type="curve" smooth="yes"/>
			<point x="261" y="312"/>
			<point x="218" y="293"/>
			<point x="191" y="265" type="curve"/>
			<point x="207" y="248" type="line"/>
			<point x="234" y="274"/>
			<point x="266" y="288"/>
			<point x="294" y="288" type="curve" smooth="yes"/>
			<point x="332" y="288"/>
			<point x="353" y="271"/>
			<point x="353" y="239" type="curve" smooth="yes"/>
			<point x="353" y="198"/>
			<point x="313" y="165"/>
			<point x="239" y="165" type="curve"/>
			<point x="235" y="143" type="line"/>
			<point x="304" y="143"/>
			<point x="338" y="125"/>
			<point x="338" y="82" type="curve" smooth="yes"/>
			<point x="338" y="38"/>
			<point x="299" y="12"/>
			<point x="254" y="12" type="curve" smooth="yes"/>
			<point x="212" y="12"/>
			<point x="187" y="29"/>
			<point x="164" y="61" type="curve"/>
			<point x="146" y="45" type="line"/>
			<point x="163" y="20"/>
			<point x="197" y="-12"/>
		</contour>
	</outline>
</glyph>
<glyph name="zero.0o" format="2">
	<advance width="600"/>
	<outline>
		<contour>
			<point x="254" y="-12" type="curve" smooth="yes"/>
			<point x="418" y="-12"/>
			<point x="521" y="148"/>
			<point x="521" y="358" type="curve" smooth="yes"/>
			<point x="521" y="497"/>
			<point x="448" y="582"/>
			<point x="336" y="582" type="curve" smooth="yes"/>
			<point x="166" y="582"/>
			<point x="69" y="410"/>
			<point x="68" y="215" type="curve" smooth="yes"/>
			<point x="67" y="63"/>
			<point x="147" y="-12"/>
		</contour>
		<contour>
			<point x="259" y="16" type="curve" smooth="yes"/>
			<point x="161" y="16"/>
			<point x="98" y="84"/>
			<point x="98" y="217" type="curve" smooth="yes"/>
			<point x="98" y="396"/>
			<point x="190" y="556"/>
			<point x="333" y="556" type="curve" smooth="yes"/>
			<point x="430" y="556"/>
			<point x="491" y="484"/>
			<point x="491" y="351" type="curve" smooth="yes"/>
			<point x="491" y="159"/>
			<point x="389" y="16"/>
		</contour>
		<contour>
			<point x="408" y="70" type="line"/>
			<point x="429" y="90" type="line"/>
			<point x="190" y="496" type="line"/>
			<point x="165" y="484" type="line"/>
		</contour>
	</outline>
</glyph>
